<svg width="128" height="20" viewBox="0 0 128 20" fill="none" xmlns="http://www.w3.org/2000/svg">
<g clip-path="url(#clip0_301_616)">
<path d="M18.4877 9.16373C18.7007 9.00619 18.8588 8.78641 18.9396 8.53522C19.0205 8.28403 19.0201 8.01402 18.9386 7.76304C18.857 7.51207 18.6984 7.29272 18.485 7.13575C18.2715 6.97878 18.0139 6.89206 17.7483 6.88775L12.5895 6.69429C12.5642 6.69255 12.5398 6.68357 12.5195 6.66843C12.4992 6.65329 12.4837 6.63263 12.4749 6.60894L10.6922 1.8294C10.6027 1.58623 10.44 1.37626 10.2262 1.22791C10.0125 1.07956 9.75796 1 9.49713 1C9.23631 1 8.98179 1.07956 8.76803 1.22791C8.55426 1.37626 8.39159 1.58623 8.30202 1.8294L6.52511 6.62601C6.51633 6.6497 6.50084 6.67036 6.4805 6.6855C6.46016 6.70064 6.43584 6.70962 6.41048 6.71136L1.25171 6.90482C0.986099 6.90913 0.728501 6.99584 0.51504 7.15281C0.301579 7.30978 0.142959 7.52914 0.061422 7.78011C-0.0201152 8.03109 -0.020481 8.3011 0.0603758 8.55229C0.141233 8.80348 0.299257 9.02326 0.512292 9.1808L4.55905 12.3387C4.57931 12.3545 4.59444 12.3759 4.60259 12.4002C4.61074 12.4244 4.61155 12.4506 4.60491 12.4753L3.21204 17.3743C3.13987 17.6238 3.14686 17.8893 3.23207 18.1347C3.31728 18.38 3.47658 18.5934 3.68828 18.7457C3.89999 18.8981 4.15383 18.982 4.41527 18.986C4.67671 18.9901 4.93306 18.9141 5.14944 18.7683L9.42548 15.9234C9.44655 15.9089 9.47154 15.9012 9.49713 15.9012C9.52273 15.9012 9.54772 15.9089 9.56878 15.9234L13.8448 18.7683C14.0583 18.919 14.3137 19 14.5756 19C14.8376 19 15.093 18.919 15.3065 18.7683C15.5182 18.6174 15.6777 18.4051 15.7629 18.1606C15.8481 17.916 15.8548 17.6513 15.7822 17.4028L14.3779 12.4867C14.3705 12.462 14.3709 12.4356 14.3791 12.4112C14.3873 12.3867 14.4029 12.3654 14.4238 12.3501L18.4877 9.16373Z" fill="#F95C19"/>
<path d="M44.4877 9.16373C44.7007 9.00619 44.8588 8.78641 44.9396 8.53522C45.0205 8.28403 45.0201 8.01402 44.9386 7.76304C44.857 7.51207 44.6984 7.29272 44.485 7.13575C44.2715 6.97878 44.0139 6.89206 43.7483 6.88775L38.5895 6.69429C38.5642 6.69255 38.5398 6.68357 38.5195 6.66843C38.4992 6.65329 38.4837 6.63263 38.4749 6.60894L36.6922 1.8294C36.6027 1.58623 36.44 1.37626 36.2262 1.22791C36.0125 1.07956 35.758 1 35.4971 1C35.2363 1 34.9818 1.07956 34.768 1.22791C34.5543 1.37626 34.3916 1.58623 34.302 1.8294L32.5251 6.62601C32.5163 6.6497 32.5008 6.67036 32.4805 6.6855C32.4602 6.70064 32.4358 6.70962 32.4105 6.71136L27.2517 6.90482C26.9861 6.90913 26.7285 6.99584 26.515 7.15281C26.3016 7.30978 26.143 7.52914 26.0614 7.78011C25.9799 8.03109 25.9795 8.3011 26.0604 8.55229C26.1412 8.80348 26.2993 9.02326 26.5123 9.1808L30.5591 12.3387C30.5793 12.3545 30.5944 12.3759 30.6026 12.4002C30.6107 12.4244 30.6115 12.4506 30.6049 12.4753L29.212 17.3743C29.1399 17.6238 29.1469 17.8893 29.2321 18.1347C29.3173 18.38 29.4766 18.5934 29.6883 18.7457C29.9 18.8981 30.1538 18.982 30.4153 18.986C30.6767 18.9901 30.9331 18.9141 31.1494 18.7683L35.4255 15.9234C35.4465 15.9089 35.4715 15.9012 35.4971 15.9012C35.5227 15.9012 35.5477 15.9089 35.5688 15.9234L39.8448 18.7683C40.0583 18.919 40.3137 19 40.5756 19C40.8376 19 41.093 18.919 41.3065 18.7683C41.5182 18.6174 41.6777 18.4051 41.7629 18.1606C41.8481 17.916 41.8548 17.6513 41.7822 17.4028L40.3779 12.4867C40.3705 12.462 40.3709 12.4356 40.3791 12.4112C40.3873 12.3867 40.4029 12.3654 40.4238 12.3501L44.4877 9.16373Z" fill="#F95C19"/>
<path d="M70.4877 9.16373C70.7007 9.00619 70.8588 8.78641 70.9396 8.53522C71.0205 8.28403 71.0201 8.01402 70.9386 7.76304C70.857 7.51207 70.6984 7.29272 70.485 7.13575C70.2715 6.97878 70.0139 6.89206 69.7483 6.88775L64.5895 6.69429C64.5642 6.69255 64.5398 6.68357 64.5195 6.66843C64.4992 6.65329 64.4837 6.63263 64.4749 6.60894L62.6922 1.8294C62.6027 1.58623 62.44 1.37626 62.2262 1.22791C62.0125 1.07956 61.758 1 61.4971 1C61.2363 1 60.9818 1.07956 60.768 1.22791C60.5543 1.37626 60.3916 1.58623 60.302 1.8294L58.5251 6.62601C58.5163 6.6497 58.5008 6.67036 58.4805 6.6855C58.4602 6.70064 58.4358 6.70962 58.4105 6.71136L53.2517 6.90482C52.9861 6.90913 52.7285 6.99584 52.515 7.15281C52.3016 7.30978 52.143 7.52914 52.0614 7.78011C51.9799 8.03109 51.9795 8.3011 52.0604 8.55229C52.1412 8.80348 52.2993 9.02326 52.5123 9.1808L56.5591 12.3387C56.5793 12.3545 56.5944 12.3759 56.6026 12.4002C56.6107 12.4244 56.6115 12.4506 56.6049 12.4753L55.212 17.3743C55.1399 17.6238 55.1469 17.8893 55.2321 18.1347C55.3173 18.38 55.4766 18.5934 55.6883 18.7457C55.9 18.8981 56.1538 18.982 56.4153 18.986C56.6767 18.9901 56.9331 18.9141 57.1494 18.7683L61.4255 15.9234C61.4465 15.9089 61.4715 15.9012 61.4971 15.9012C61.5227 15.9012 61.5477 15.9089 61.5688 15.9234L65.8448 18.7683C66.0583 18.919 66.3137 19 66.5756 19C66.8376 19 67.093 18.919 67.3065 18.7683C67.5182 18.6174 67.6777 18.4051 67.7629 18.1606C67.8481 17.916 67.8548 17.6513 67.7822 17.4028L66.3779 12.4867C66.3705 12.462 66.3709 12.4356 66.3791 12.4112C66.3873 12.3867 66.4029 12.3654 66.4238 12.3501L70.4877 9.16373Z" fill="#F95C19"/>
<path d="M97.8334 9.32224C98.0502 9.16842 98.211 8.95384 98.2933 8.70858C98.3756 8.46332 98.3752 8.19968 98.2922 7.95463C98.2092 7.70958 98.0478 7.49541 97.8306 7.34215C97.6133 7.18889 97.3512 7.10422 97.0809 7.10001L91.8309 6.91113C91.8051 6.90943 91.7803 6.90066 91.7596 6.88587C91.7389 6.87109 91.7231 6.85092 91.7142 6.82779L89.9 2.16113C89.8089 1.9237 89.6433 1.71869 89.4258 1.57384C89.2082 1.429 88.9492 1.35132 88.6838 1.35132C88.4183 1.35132 88.1593 1.429 87.9418 1.57384C87.7242 1.71869 87.5587 1.9237 87.4675 2.16113L85.6592 6.84446C85.6503 6.86758 85.6345 6.88775 85.6138 6.90254C85.5931 6.91733 85.5683 6.9261 85.5425 6.92779L80.2925 7.11668C80.0222 7.12089 79.7601 7.20556 79.5428 7.35882C79.3256 7.51208 79.1642 7.72625 79.0812 7.9713C78.9982 8.21635 78.9978 8.47998 79.0801 8.72524C79.1624 8.9705 79.3232 9.18508 79.54 9.3389L83.6584 12.4222C83.679 12.4377 83.6944 12.4585 83.7027 12.4822C83.711 12.5059 83.7118 12.5314 83.705 12.5556L82.2875 17.3389C82.2141 17.5825 82.2212 17.8417 82.3079 18.0813C82.3946 18.3209 82.5567 18.5292 82.7722 18.6779C82.9876 18.8267 83.246 18.9086 83.512 18.9125C83.7781 18.9165 84.039 18.8423 84.2592 18.7L88.6109 15.9222C88.6323 15.9081 88.6577 15.9006 88.6838 15.9006C88.7098 15.9006 88.7353 15.9081 88.7567 15.9222L93.1084 18.7C93.3256 18.8471 93.5856 18.9262 93.8521 18.9262C94.1187 18.9262 94.3786 18.8471 94.5959 18.7C94.8114 18.5527 94.9736 18.3454 95.0603 18.1066C95.147 17.8678 95.1539 17.6093 95.08 17.3667L93.6509 12.5667C93.6433 12.5426 93.6437 12.5169 93.6521 12.493C93.6604 12.4691 93.6763 12.4483 93.6975 12.4333L97.8334 9.32224Z" fill="#F95C19"/>
<path d="M126.778 9.32224C127.005 9.16842 127.173 8.95384 127.26 8.70858C127.346 8.46332 127.345 8.19968 127.258 7.95463C127.172 7.70958 127.002 7.49541 126.775 7.34215C126.547 7.18889 126.273 7.10422 125.989 7.10001L120.489 6.91113C120.462 6.90943 120.436 6.90066 120.415 6.88587C120.393 6.87109 120.377 6.85092 120.367 6.82779L118.467 2.16113C118.371 1.9237 118.198 1.71869 117.97 1.57384C117.742 1.429 117.471 1.35132 117.192 1.35132C116.914 1.35132 116.643 1.429 116.415 1.57384C116.187 1.71869 116.014 1.9237 115.918 2.16113L114.024 6.84446C114.015 6.86758 113.998 6.88775 113.976 6.90254C113.955 6.91733 113.929 6.9261 113.902 6.92779L108.402 7.11668C108.118 7.12089 107.844 7.20556 107.616 7.35882C107.389 7.51208 107.22 7.72625 107.133 7.9713C107.046 8.21635 107.045 8.47998 107.132 8.72524C107.218 8.9705 107.386 9.18508 107.613 9.3389L111.928 12.4222C111.949 12.4377 111.965 12.4585 111.974 12.4822C111.983 12.5059 111.984 12.5314 111.977 12.5556L110.492 17.3389C110.415 17.5825 110.422 17.8417 110.513 18.0813C110.604 18.3209 110.774 18.5292 110.999 18.6779C111.225 18.8267 111.496 18.9086 111.774 18.9125C112.053 18.9165 112.327 18.8423 112.557 18.7L117.116 15.9222C117.139 15.9081 117.165 15.9006 117.192 15.9006C117.22 15.9006 117.246 15.9081 117.269 15.9222L121.828 18.7C122.055 18.8471 122.328 18.9262 122.607 18.9262C122.886 18.9262 123.159 18.8471 123.386 18.7C123.612 18.5527 123.782 18.3454 123.873 18.1066C123.964 17.8678 123.971 17.6093 123.893 17.3667L122.396 12.5667C122.388 12.5426 122.389 12.5169 122.397 12.493C122.406 12.4691 122.423 12.4483 122.445 12.4333L126.778 9.32224Z" fill="#F95C19"/>
</g>
<defs>
<clipPath id="clip0_301_616">
<rect width="128" height="20" fill="white"/>
</clipPath>
</defs>
</svg>
