<svg width="673" height="151" viewBox="0 0 673 151" fill="none" xmlns="http://www.w3.org/2000/svg">
<path d="M196.149 29V7.4375H210.899V11.5H200.649V16.8125H209.961V20.875H200.649V29H196.149ZM211.788 28.1562L218.194 7.4375H225.069L231.475 28.1562L230.913 29H227.163L225.85 24.625H217.413L216.1 29H212.35L211.788 28.1562ZM218.632 20.5625H224.632L221.882 11.5H221.382L218.632 20.5625ZM233.663 27.375V24.9375H243.351C243.976 24.9375 244.288 24.625 244.288 24V21.7187C244.288 21.1354 244.028 20.7917 243.507 20.6875L237.413 19.4687C234.913 18.9687 233.663 17.2917 233.663 14.4375V12.6875C233.663 9.1875 235.413 7.4375 238.913 7.4375H246.07L248.163 9.0625V11.5H239.101C238.476 11.5 238.163 11.8125 238.163 12.4375V14.4687C238.163 15.0521 238.424 15.3958 238.945 15.5L245.038 16.7187C247.538 17.2187 248.788 18.8958 248.788 21.75V23.75C248.788 27.25 247.038 29 243.538 29H235.757L233.663 27.375ZM251.16 11.5V7.4375H268.785V11.5H262.222V29H257.722V11.5H251.16ZM272.107 29V7.4375H286.857V11.5H276.607V15.875H285.919V19.9375H276.607V24.9375H286.857V29H272.107ZM290.029 27.375V24.9375H299.717C300.342 24.9375 300.654 24.625 300.654 24V21.7187C300.654 21.1354 300.394 20.7917 299.873 20.6875L293.779 19.4687C291.279 18.9687 290.029 17.2917 290.029 14.4375V12.6875C290.029 9.1875 291.779 7.4375 295.279 7.4375H302.436L304.529 9.0625V11.5H295.467C294.842 11.5 294.529 11.8125 294.529 12.4375V14.4687C294.529 15.0521 294.79 15.3958 295.311 15.5L301.404 16.7187C303.904 17.2187 305.154 18.8958 305.154 21.75V23.75C305.154 27.25 303.404 29 299.904 29H292.123L290.029 27.375ZM307.526 11.5V7.4375H325.151V11.5H318.588V29H314.088V11.5H307.526ZM335.98 29V7.4375H344.168C350.043 7.4375 352.98 10.375 352.98 16.25V20.1875C352.98 26.0625 350.043 29 344.168 29H335.98ZM340.48 24.9375H344.418C347.126 24.9375 348.48 23.5833 348.48 20.875V15.5625C348.48 12.8542 347.126 11.5 344.418 11.5H340.48V24.9375ZM357.495 29V7.4375H372.245V11.5H361.995V15.875H371.308V19.9375H361.995V24.9375H372.245V29H357.495ZM376.355 29V7.4375H380.855V24.9375H390.167V29H376.355ZM393.475 29V7.4375H397.975V29H393.475ZM401.088 8.28125L401.651 7.4375H405.588L410.526 24.9375H411.026L415.963 7.4375H419.901L420.463 8.28125L414.338 29H407.213L401.088 8.28125ZM423.596 29V7.4375H438.346V11.5H428.096V15.875H437.409V19.9375H428.096V24.9375H438.346V29H423.596ZM442.456 29V7.4375H452.956C456.456 7.4375 458.206 9.1875 458.206 12.6875V16.25C458.206 18.8542 457.237 20.4896 455.3 21.1562L458.831 28.0625L458.3 29H454.425L450.612 21.5H446.956V29H442.456ZM446.956 17.4375H452.769C453.394 17.4375 453.706 17.125 453.706 16.5V12.4375C453.706 11.8125 453.394 11.5 452.769 11.5H446.956V17.4375ZM460.72 8.28125L461.251 7.4375H465.095L469.782 16.5937L474.47 7.4375H478.313L478.845 8.28125L472.032 21.375V29H467.532V21.375L460.72 8.28125Z" fill="#F95C19"/>
<path d="M31.6351 59.25L37.4351 68.8L43.2851 59.25H45.1851L38.3101 70.4V77H36.5601V70.35L29.7101 59.25H31.6351ZM50.7243 77.25C49.4743 77.25 48.3577 76.9417 47.3743 76.325C46.4076 75.7083 45.6493 74.8917 45.0993 73.875C44.5493 72.8417 44.2743 71.725 44.2743 70.525C44.2743 69.3083 44.5493 68.1917 45.0993 67.175C45.666 66.1417 46.4326 65.3167 47.3993 64.7C48.3826 64.0667 49.491 63.75 50.7243 63.75C51.9743 63.75 53.0826 64.0667 54.0493 64.7C55.0327 65.3167 55.7993 66.1417 56.3493 67.175C56.916 68.1917 57.1993 69.3083 57.1993 70.525C57.1993 71.725 56.9243 72.8417 56.3743 73.875C55.8243 74.8917 55.0577 75.7083 54.0743 76.325C53.1077 76.9417 51.991 77.25 50.7243 77.25ZM45.9993 70.55C45.9993 71.5167 46.2076 72.4 46.6243 73.2C47.0576 73.9833 47.6326 74.6083 48.3493 75.075C49.066 75.525 49.8576 75.75 50.7243 75.75C51.591 75.75 52.3827 75.5167 53.0993 75.05C53.816 74.5833 54.391 73.95 54.8243 73.15C55.2577 72.35 55.4743 71.4667 55.4743 70.5C55.4743 69.5333 55.2577 68.65 54.8243 67.85C54.391 67.05 53.816 66.4167 53.0993 65.95C52.3827 65.4833 51.591 65.25 50.7243 65.25C49.8743 65.25 49.091 65.4917 48.3743 65.975C47.6577 66.4417 47.0826 67.075 46.6493 67.875C46.216 68.675 45.9993 69.5667 45.9993 70.55ZM59.9175 71.625V63.975H61.6175V71.325C61.6175 74.275 62.6258 75.75 64.6425 75.75C65.6425 75.75 66.5758 75.425 67.4425 74.775C68.3258 74.125 68.9591 73.2583 69.3425 72.175V63.975H71.0425V74.95C71.0425 75.4 71.2425 75.6333 71.6425 75.65V77C71.4425 77.0333 71.2841 77.05 71.1675 77.05C71.0675 77.05 70.9591 77.05 70.8425 77.05C70.4925 77.0167 70.1925 76.8833 69.9425 76.65C69.7091 76.4167 69.5925 76.1333 69.5925 75.8L69.5425 74.05C68.9758 75.0667 68.2008 75.8583 67.2175 76.425C66.2508 76.975 65.2008 77.25 64.0675 77.25C61.3008 77.25 59.9175 75.375 59.9175 71.625ZM86.9083 77.25C85.6416 77.25 84.5166 76.9417 83.5333 76.325C82.55 75.6917 81.775 74.8667 81.2083 73.85C80.6416 72.8167 80.3583 71.6833 80.3583 70.45C80.3583 69.2167 80.6333 68.1 81.1833 67.1C81.7333 66.0833 82.5 65.275 83.4833 64.675C84.4666 64.0583 85.6 63.75 86.8833 63.75C88.1 63.75 89.1666 64.0333 90.0833 64.6C91.0166 65.15 91.7166 65.9 92.1833 66.85L90.5333 67.375C90.1666 66.7083 89.65 66.1917 88.9833 65.825C88.3333 65.4417 87.6083 65.25 86.8083 65.25C85.925 65.25 85.125 65.475 84.4083 65.925C83.7083 66.375 83.1416 67 82.7083 67.8C82.2916 68.5833 82.0833 69.4667 82.0833 70.45C82.0833 71.4333 82.3 72.325 82.7333 73.125C83.1666 73.925 83.7416 74.5667 84.4583 75.05C85.175 75.5167 85.9666 75.75 86.8333 75.75C87.4 75.75 87.95 75.65 88.4833 75.45C89.0166 75.25 89.475 74.9833 89.8583 74.65C90.2416 74.3 90.5 73.925 90.6333 73.525L92.3083 74.025C92.075 74.6417 91.6916 75.2 91.1583 75.7C90.625 76.1833 89.9916 76.5667 89.2583 76.85C88.525 77.1167 87.7416 77.25 86.9083 77.25ZM93.929 73.25C93.929 72.45 94.1623 71.7583 94.629 71.175C95.0957 70.575 95.7373 70.1083 96.554 69.775C97.3873 69.4417 98.3457 69.275 99.429 69.275C100.062 69.275 100.721 69.3333 101.404 69.45C102.087 69.55 102.696 69.6917 103.229 69.875V68.775C103.229 67.675 102.904 66.8 102.254 66.15C101.604 65.5 100.704 65.175 99.554 65.175C98.8707 65.175 98.1873 65.3083 97.504 65.575C96.8207 65.825 96.1123 66.2 95.379 66.7L94.729 65.5C95.579 64.9167 96.4123 64.4833 97.229 64.2C98.0457 63.9 98.879 63.75 99.729 63.75C101.329 63.75 102.596 64.2083 103.529 65.125C104.462 66.0417 104.929 67.3083 104.929 68.925V74.95C104.929 75.4 105.137 75.6333 105.554 75.65V77C105.187 77.05 104.929 77.0667 104.779 77.05C104.362 77.0333 104.046 76.9 103.829 76.65C103.612 76.4 103.496 76.1333 103.479 75.85L103.454 74.9C102.871 75.65 102.112 76.2333 101.179 76.65C100.246 77.05 99.2957 77.25 98.329 77.25C97.479 77.25 96.7207 77.075 96.054 76.725C95.3873 76.3583 94.8623 75.875 94.479 75.275C94.1123 74.6583 93.929 73.9833 93.929 73.25ZM102.654 74.25C103.037 73.8 103.229 73.3833 103.229 73V71.1C102.079 70.65 100.879 70.425 99.629 70.425C98.4123 70.425 97.429 70.6667 96.679 71.15C95.929 71.6333 95.554 72.2917 95.554 73.125C95.554 73.8417 95.829 74.4917 96.379 75.075C96.9457 75.6583 97.729 75.95 98.729 75.95C99.5457 75.95 100.304 75.7917 101.004 75.475C101.721 75.1583 102.271 74.75 102.654 74.25ZM119.552 77H117.852V69.725C117.852 68.1917 117.619 67.075 117.152 66.375C116.702 65.6583 116.002 65.3 115.052 65.3C114.385 65.3 113.727 65.4667 113.077 65.8C112.427 66.1167 111.852 66.5583 111.352 67.125C110.869 67.675 110.519 68.3083 110.302 69.025V77H108.602V63.975H110.152V66.925C110.669 65.975 111.427 65.2083 112.427 64.625C113.427 64.0417 114.51 63.75 115.677 63.75C116.644 63.75 117.41 63.9833 117.977 64.45C118.544 64.9 118.944 65.55 119.177 66.4C119.427 67.2333 119.552 68.225 119.552 69.375V77ZM134.774 77.175C133.874 77.175 133.049 76.9917 132.299 76.625C131.566 76.2583 130.924 75.7667 130.374 75.15C129.841 74.5167 129.424 73.8 129.124 73C128.824 72.2 128.674 71.375 128.674 70.525C128.674 69.3083 128.933 68.1917 129.449 67.175C129.966 66.1417 130.674 65.3167 131.574 64.7C132.491 64.0667 133.541 63.75 134.724 63.75C135.841 63.75 136.808 64.0333 137.624 64.6C138.458 65.1667 139.158 65.8667 139.724 66.7V63.975H141.249V77.05C141.249 78.2667 140.958 79.2833 140.374 80.1C139.791 80.9167 139.016 81.5333 138.049 81.95C137.083 82.3667 136.024 82.575 134.874 82.575C133.374 82.575 132.166 82.3083 131.249 81.775C130.349 81.2417 129.608 80.525 129.024 79.625L130.074 78.8C130.591 79.6167 131.274 80.225 132.124 80.625C132.991 81.025 133.908 81.225 134.874 81.225C135.724 81.225 136.499 81.0667 137.199 80.75C137.916 80.45 138.483 79.9917 138.899 79.375C139.333 78.7583 139.549 77.9833 139.549 77.05V74.475C139.049 75.2917 138.366 75.95 137.499 76.45C136.633 76.9333 135.724 77.175 134.774 77.175ZM135.249 75.75C135.933 75.75 136.583 75.5917 137.199 75.275C137.816 74.9583 138.333 74.5583 138.749 74.075C139.183 73.575 139.449 73.0583 139.549 72.525V68.5C139.299 67.8667 138.941 67.3083 138.474 66.825C138.008 66.325 137.474 65.9417 136.874 65.675C136.274 65.3917 135.666 65.25 135.049 65.25C134.083 65.25 133.249 65.5167 132.549 66.05C131.866 66.5667 131.333 67.2333 130.949 68.05C130.583 68.85 130.399 69.6833 130.399 70.55C130.399 71.4833 130.616 72.35 131.049 73.15C131.483 73.9333 132.066 74.5667 132.799 75.05C133.533 75.5167 134.349 75.75 135.249 75.75ZM150.628 77.25C149.378 77.25 148.262 76.9417 147.278 76.325C146.295 75.7083 145.52 74.8833 144.953 73.85C144.387 72.8167 144.103 71.6833 144.103 70.45C144.103 69.2333 144.378 68.1167 144.928 67.1C145.495 66.0833 146.27 65.275 147.253 64.675C148.237 64.0583 149.353 63.75 150.603 63.75C151.887 63.75 153.012 64.0583 153.978 64.675C154.945 65.2917 155.695 66.1083 156.228 67.125C156.778 68.125 157.053 69.225 157.053 70.425C157.053 70.6917 157.045 70.9167 157.028 71.1H145.878C145.962 72.0333 146.228 72.8667 146.678 73.6C147.128 74.3167 147.703 74.8917 148.403 75.325C149.103 75.7417 149.87 75.95 150.703 75.95C151.553 75.95 152.353 75.7333 153.103 75.3C153.853 74.8667 154.387 74.3 154.703 73.6L156.178 74C155.912 74.6333 155.495 75.2 154.928 75.7C154.378 76.1833 153.737 76.5667 153.003 76.85C152.27 77.1167 151.478 77.25 150.628 77.25ZM145.828 69.875H155.453C155.387 68.9417 155.128 68.1167 154.678 67.4C154.228 66.6667 153.653 66.1 152.953 65.7C152.253 65.2833 151.478 65.075 150.628 65.075C149.778 65.075 149.003 65.2833 148.303 65.7C147.603 66.1 147.028 66.6667 146.578 67.4C146.145 68.1167 145.895 68.9417 145.828 69.875ZM165.804 76.375C165.604 76.4583 165.238 76.6083 164.704 76.825C164.171 77.0417 163.554 77.15 162.854 77.15C162.121 77.15 161.479 76.9417 160.929 76.525C160.379 76.1083 160.104 75.4833 160.104 74.65V65.325H158.304V63.975H160.104V59.575H161.804V63.975H164.804V65.325H161.804V74.175C161.838 74.6583 162.004 75.0167 162.304 75.25C162.621 75.4667 162.979 75.575 163.379 75.575C163.846 75.575 164.263 75.5 164.629 75.35C165.013 75.1833 165.254 75.0667 165.354 75L165.804 76.375ZM174.367 81C174.6 81.0167 174.825 81.025 175.042 81.025C175.258 81.0417 175.417 81.0333 175.517 81C175.717 80.9833 175.9 80.8667 176.067 80.65C176.25 80.45 176.467 80.0667 176.717 79.5C176.983 78.95 177.342 78.1167 177.792 77L172.117 63.975H173.917L178.692 75.25L183.092 63.975H184.792L178.042 80.775C177.858 81.2583 177.55 81.675 177.117 82.025C176.683 82.375 176.108 82.5583 175.392 82.575C175.242 82.5917 175.083 82.5917 174.917 82.575C174.75 82.575 174.567 82.5583 174.367 82.525V81ZM192.253 77.25C191.003 77.25 189.886 76.9417 188.903 76.325C187.936 75.7083 187.178 74.8917 186.628 73.875C186.078 72.8417 185.803 71.725 185.803 70.525C185.803 69.3083 186.078 68.1917 186.628 67.175C187.194 66.1417 187.961 65.3167 188.928 64.7C189.911 64.0667 191.019 63.75 192.253 63.75C193.503 63.75 194.611 64.0667 195.578 64.7C196.561 65.3167 197.328 66.1417 197.878 67.175C198.444 68.1917 198.728 69.3083 198.728 70.525C198.728 71.725 198.453 72.8417 197.903 73.875C197.353 74.8917 196.586 75.7083 195.603 76.325C194.636 76.9417 193.519 77.25 192.253 77.25ZM187.528 70.55C187.528 71.5167 187.736 72.4 188.153 73.2C188.586 73.9833 189.161 74.6083 189.878 75.075C190.594 75.525 191.386 75.75 192.253 75.75C193.119 75.75 193.911 75.5167 194.628 75.05C195.344 74.5833 195.919 73.95 196.353 73.15C196.786 72.35 197.003 71.4667 197.003 70.5C197.003 69.5333 196.786 68.65 196.353 67.85C195.919 67.05 195.344 66.4167 194.628 65.95C193.911 65.4833 193.119 65.25 192.253 65.25C191.403 65.25 190.619 65.4917 189.903 65.975C189.186 66.4417 188.611 67.075 188.178 67.875C187.744 68.675 187.528 69.5667 187.528 70.55ZM201.446 71.625V63.975H203.146V71.325C203.146 74.275 204.154 75.75 206.171 75.75C207.171 75.75 208.104 75.425 208.971 74.775C209.854 74.125 210.487 73.2583 210.871 72.175V63.975H212.571V74.95C212.571 75.4 212.771 75.6333 213.171 75.65V77C212.971 77.0333 212.812 77.05 212.696 77.05C212.596 77.05 212.487 77.05 212.371 77.05C212.021 77.0167 211.721 76.8833 211.471 76.65C211.237 76.4167 211.121 76.1333 211.121 75.8L211.071 74.05C210.504 75.0667 209.729 75.8583 208.746 76.425C207.779 76.975 206.729 77.25 205.596 77.25C202.829 77.25 201.446 75.375 201.446 71.625ZM222.915 65.475C221.781 65.5083 220.781 65.825 219.915 66.425C219.065 67.025 218.465 67.85 218.115 68.9V77H216.415V63.975H218.015V67.1C218.465 66.1833 219.056 65.4417 219.79 64.875C220.54 64.3083 221.331 63.9917 222.165 63.925C222.331 63.9083 222.473 63.9 222.59 63.9C222.706 63.9 222.815 63.9083 222.915 63.925V65.475ZM234.157 77L228.882 63.975H230.657L235.107 75.3L239.582 63.975H241.257L235.982 77H234.157ZM242.244 73.25C242.244 72.45 242.478 71.7583 242.944 71.175C243.411 70.575 244.053 70.1083 244.869 69.775C245.703 69.4417 246.661 69.275 247.744 69.275C248.378 69.275 249.036 69.3333 249.719 69.45C250.403 69.55 251.011 69.6917 251.544 69.875V68.775C251.544 67.675 251.219 66.8 250.569 66.15C249.919 65.5 249.019 65.175 247.869 65.175C247.186 65.175 246.503 65.3083 245.819 65.575C245.136 65.825 244.428 66.2 243.694 66.7L243.044 65.5C243.894 64.9167 244.728 64.4833 245.544 64.2C246.361 63.9 247.194 63.75 248.044 63.75C249.644 63.75 250.911 64.2083 251.844 65.125C252.778 66.0417 253.244 67.3083 253.244 68.925V74.95C253.244 75.4 253.453 75.6333 253.869 75.65V77C253.503 77.05 253.244 77.0667 253.094 77.05C252.678 77.0333 252.361 76.9 252.144 76.65C251.928 76.4 251.811 76.1333 251.794 75.85L251.769 74.9C251.186 75.65 250.428 76.2333 249.494 76.65C248.561 77.05 247.611 77.25 246.644 77.25C245.794 77.25 245.036 77.075 244.369 76.725C243.703 76.3583 243.178 75.875 242.794 75.275C242.428 74.6583 242.244 73.9833 242.244 73.25ZM250.969 74.25C251.353 73.8 251.544 73.3833 251.544 73V71.1C250.394 70.65 249.194 70.425 247.944 70.425C246.728 70.425 245.744 70.6667 244.994 71.15C244.244 71.6333 243.869 72.2917 243.869 73.125C243.869 73.8417 244.144 74.4917 244.694 75.075C245.261 75.6583 246.044 75.95 247.044 75.95C247.861 75.95 248.619 75.7917 249.319 75.475C250.036 75.1583 250.586 74.75 250.969 74.25ZM256.992 58.75H258.692V74.05C258.692 74.7 258.801 75.125 259.017 75.325C259.251 75.525 259.542 75.625 259.892 75.625C260.192 75.625 260.492 75.5917 260.792 75.525C261.109 75.4583 261.367 75.3917 261.567 75.325L261.867 76.7C261.551 76.8333 261.159 76.9417 260.692 77.025C260.242 77.1083 259.851 77.15 259.517 77.15C258.751 77.15 258.134 76.925 257.667 76.475C257.217 76.025 256.992 75.4083 256.992 74.625V58.75ZM263.604 71.625V63.975H265.304V71.325C265.304 74.275 266.312 75.75 268.329 75.75C269.329 75.75 270.262 75.425 271.129 74.775C272.012 74.125 272.646 73.2583 273.029 72.175V63.975H274.729V74.95C274.729 75.4 274.929 75.6333 275.329 75.65V77C275.129 77.0333 274.971 77.05 274.854 77.05C274.754 77.05 274.646 77.05 274.529 77.05C274.179 77.0167 273.879 76.8833 273.629 76.65C273.396 76.4167 273.279 76.1333 273.279 75.8L273.229 74.05C272.662 75.0667 271.887 75.8583 270.904 76.425C269.937 76.975 268.887 77.25 267.754 77.25C264.987 77.25 263.604 75.375 263.604 71.625ZM277.523 73.25C277.523 72.45 277.756 71.7583 278.223 71.175C278.689 70.575 279.331 70.1083 280.148 69.775C280.981 69.4417 281.939 69.275 283.023 69.275C283.656 69.275 284.314 69.3333 284.998 69.45C285.681 69.55 286.289 69.6917 286.823 69.875V68.775C286.823 67.675 286.498 66.8 285.848 66.15C285.198 65.5 284.298 65.175 283.148 65.175C282.464 65.175 281.781 65.3083 281.098 65.575C280.414 65.825 279.706 66.2 278.973 66.7L278.323 65.5C279.173 64.9167 280.006 64.4833 280.823 64.2C281.639 63.9 282.473 63.75 283.323 63.75C284.923 63.75 286.189 64.2083 287.123 65.125C288.056 66.0417 288.523 67.3083 288.523 68.925V74.95C288.523 75.4 288.731 75.6333 289.148 75.65V77C288.781 77.05 288.523 77.0667 288.373 77.05C287.956 77.0333 287.639 76.9 287.423 76.65C287.206 76.4 287.089 76.1333 287.073 75.85L287.048 74.9C286.464 75.65 285.706 76.2333 284.773 76.65C283.839 77.05 282.889 77.25 281.923 77.25C281.073 77.25 280.314 77.075 279.648 76.725C278.981 76.3583 278.456 75.875 278.073 75.275C277.706 74.6583 277.523 73.9833 277.523 73.25ZM286.248 74.25C286.631 73.8 286.823 73.3833 286.823 73V71.1C285.673 70.65 284.473 70.425 283.223 70.425C282.006 70.425 281.023 70.6667 280.273 71.15C279.523 71.6333 279.148 72.2917 279.148 73.125C279.148 73.8417 279.423 74.4917 279.973 75.075C280.539 75.6583 281.323 75.95 282.323 75.95C283.139 75.95 283.898 75.7917 284.598 75.475C285.314 75.1583 285.864 74.75 286.248 74.25ZM298.571 77.25C297.554 77.25 296.612 76.9917 295.746 76.475C294.879 75.9417 294.204 75.275 293.721 74.475V77H292.196V58.75H293.896V66.7C294.479 65.8167 295.179 65.1083 295.996 64.575C296.812 64.025 297.762 63.75 298.846 63.75C299.762 63.75 300.579 63.9417 301.296 64.325C302.029 64.7083 302.654 65.225 303.171 65.875C303.687 66.5083 304.079 67.2333 304.346 68.05C304.612 68.85 304.746 69.675 304.746 70.525C304.746 71.7417 304.471 72.8583 303.921 73.875C303.387 74.8917 302.654 75.7083 301.721 76.325C300.787 76.9417 299.737 77.25 298.571 77.25ZM298.171 75.75C299.121 75.75 299.954 75.5 300.671 75C301.404 74.5 301.979 73.8583 302.396 73.075C302.812 72.275 303.021 71.425 303.021 70.525C303.021 69.6083 302.821 68.75 302.421 67.95C302.037 67.15 301.496 66.5 300.796 66C300.096 65.5 299.287 65.25 298.371 65.25C297.354 65.25 296.454 65.575 295.671 66.225C294.904 66.875 294.312 67.6333 293.896 68.5V72.55C293.979 73.15 294.254 73.6917 294.721 74.175C295.187 74.6583 295.737 75.0417 296.371 75.325C297.004 75.6083 297.604 75.75 298.171 75.75ZM307.7 58.75H309.4V74.05C309.4 74.7 309.509 75.125 309.725 75.325C309.959 75.525 310.25 75.625 310.6 75.625C310.9 75.625 311.2 75.5917 311.5 75.525C311.817 75.4583 312.075 75.3917 312.275 75.325L312.575 76.7C312.259 76.8333 311.867 76.9417 311.4 77.025C310.95 77.1083 310.559 77.15 310.225 77.15C309.459 77.15 308.842 76.925 308.375 76.475C307.925 76.025 307.7 75.4083 307.7 74.625V58.75ZM320.062 77.25C318.812 77.25 317.695 76.9417 316.712 76.325C315.729 75.7083 314.954 74.8833 314.387 73.85C313.82 72.8167 313.537 71.6833 313.537 70.45C313.537 69.2333 313.812 68.1167 314.362 67.1C314.929 66.0833 315.704 65.275 316.687 64.675C317.67 64.0583 318.787 63.75 320.037 63.75C321.32 63.75 322.445 64.0583 323.412 64.675C324.379 65.2917 325.129 66.1083 325.662 67.125C326.212 68.125 326.487 69.225 326.487 70.425C326.487 70.6917 326.479 70.9167 326.462 71.1H315.312C315.395 72.0333 315.662 72.8667 316.112 73.6C316.562 74.3167 317.137 74.8917 317.837 75.325C318.537 75.7417 319.304 75.95 320.137 75.95C320.987 75.95 321.787 75.7333 322.537 75.3C323.287 74.8667 323.82 74.3 324.137 73.6L325.612 74C325.345 74.6333 324.929 75.2 324.362 75.7C323.812 76.1833 323.17 76.5667 322.437 76.85C321.704 77.1167 320.912 77.25 320.062 77.25ZM315.262 69.875H324.887C324.82 68.9417 324.562 68.1167 324.112 67.4C323.662 66.6667 323.087 66.1 322.387 65.7C321.687 65.2833 320.912 65.075 320.062 65.075C319.212 65.075 318.437 65.2833 317.737 65.7C317.037 66.1 316.462 66.6667 316.012 67.4C315.579 68.1167 315.329 68.9417 315.262 69.875ZM335.482 61.25V58.75H337.182V61.25H335.482ZM335.482 77V63.975H337.182V77H335.482ZM347.176 76.375C346.976 76.4583 346.61 76.6083 346.076 76.825C345.543 77.0417 344.926 77.15 344.226 77.15C343.493 77.15 342.851 76.9417 342.301 76.525C341.751 76.1083 341.476 75.4833 341.476 74.65V65.325H339.676V63.975H341.476V59.575H343.176V63.975H346.176V65.325H343.176V74.175C343.21 74.6583 343.376 75.0167 343.676 75.25C343.993 75.4667 344.351 75.575 344.751 75.575C345.218 75.575 345.635 75.5 346.001 75.35C346.385 75.1833 346.626 75.0667 346.726 75L347.176 76.375ZM354.706 77.25C353.456 77.25 352.339 76.9417 351.356 76.325C350.372 75.7083 349.597 74.8833 349.031 73.85C348.464 72.8167 348.181 71.6833 348.181 70.45C348.181 69.2333 348.456 68.1167 349.006 67.1C349.572 66.0833 350.347 65.275 351.331 64.675C352.314 64.0583 353.431 63.75 354.681 63.75C355.964 63.75 357.089 64.0583 358.056 64.675C359.022 65.2917 359.772 66.1083 360.306 67.125C360.856 68.125 361.131 69.225 361.131 70.425C361.131 70.6917 361.122 70.9167 361.106 71.1H349.956C350.039 72.0333 350.306 72.8667 350.756 73.6C351.206 74.3167 351.781 74.8917 352.481 75.325C353.181 75.7417 353.947 75.95 354.781 75.95C355.631 75.95 356.431 75.7333 357.181 75.3C357.931 74.8667 358.464 74.3 358.781 73.6L360.256 74C359.989 74.6333 359.572 75.2 359.006 75.7C358.456 76.1833 357.814 76.5667 357.081 76.85C356.347 77.1167 355.556 77.25 354.706 77.25ZM349.906 69.875H359.531C359.464 68.9417 359.206 68.1167 358.756 67.4C358.306 66.6667 357.731 66.1 357.031 65.7C356.331 65.2833 355.556 65.075 354.706 65.075C353.856 65.075 353.081 65.2833 352.381 65.7C351.681 66.1 351.106 66.6667 350.656 67.4C350.222 68.1167 349.972 68.9417 349.906 69.875ZM383.128 77H381.428V69.725C381.428 68.225 381.187 67.1167 380.703 66.4C380.22 65.6667 379.503 65.3 378.553 65.3C377.553 65.3 376.67 65.65 375.903 66.35C375.137 67.05 374.595 67.95 374.278 69.05V77H372.578V69.725C372.578 68.1917 372.337 67.075 371.853 66.375C371.387 65.6583 370.678 65.3 369.728 65.3C368.745 65.3 367.862 65.6417 367.078 66.325C366.312 67.0083 365.77 67.9083 365.453 69.025V77H363.753V63.975H365.303V66.925C365.837 65.925 366.537 65.15 367.403 64.6C368.27 64.0333 369.228 63.75 370.278 63.75C371.362 63.75 372.237 64.0667 372.903 64.7C373.57 65.3167 373.978 66.1167 374.128 67.1C375.328 64.8667 377.003 63.75 379.153 63.75C380.62 63.75 381.645 64.2667 382.228 65.3C382.828 66.3167 383.128 67.675 383.128 69.375V77ZM393.099 61.25V58.75H394.799V61.25H393.099ZM393.099 77V63.975H394.799V77H393.099ZM409.493 77H407.793V69.725C407.793 68.1917 407.56 67.075 407.093 66.375C406.643 65.6583 405.943 65.3 404.993 65.3C404.327 65.3 403.668 65.4667 403.018 65.8C402.368 66.1167 401.793 66.5583 401.293 67.125C400.81 67.675 400.46 68.3083 400.243 69.025V77H398.543V63.975H400.093V66.925C400.61 65.975 401.368 65.2083 402.368 64.625C403.368 64.0417 404.452 63.75 405.618 63.75C406.585 63.75 407.352 63.9833 407.918 64.45C408.485 64.9 408.885 65.55 409.118 66.4C409.368 67.2333 409.493 68.225 409.493 69.375V77ZM425.741 76.375C425.541 76.4583 425.174 76.6083 424.641 76.825C424.107 77.0417 423.491 77.15 422.791 77.15C422.057 77.15 421.416 76.9417 420.866 76.525C420.316 76.1083 420.041 75.4833 420.041 74.65V65.325H418.241V63.975H420.041V59.575H421.741V63.975H424.741V65.325H421.741V74.175C421.774 74.6583 421.941 75.0167 422.241 75.25C422.557 75.4667 422.916 75.575 423.316 75.575C423.782 75.575 424.199 75.5 424.566 75.35C424.949 75.1833 425.191 75.0667 425.291 75L425.741 76.375ZM438.815 77H437.115V69.725C437.115 66.775 436.115 65.3 434.115 65.3C433.465 65.3 432.831 65.4667 432.215 65.8C431.598 66.1167 431.048 66.5583 430.565 67.125C430.098 67.675 429.765 68.3083 429.565 69.025V77H427.865V58.75H429.565V66.925C430.081 65.9583 430.798 65.1917 431.715 64.625C432.648 64.0417 433.64 63.75 434.69 63.75C435.69 63.75 436.49 63.9917 437.09 64.475C437.69 64.9417 438.123 65.6 438.39 66.45C438.673 67.2833 438.815 68.2583 438.815 69.375V77ZM448.065 77.25C446.815 77.25 445.698 76.9417 444.715 76.325C443.732 75.7083 442.957 74.8833 442.39 73.85C441.823 72.8167 441.54 71.6833 441.54 70.45C441.54 69.2333 441.815 68.1167 442.365 67.1C442.932 66.0833 443.707 65.275 444.69 64.675C445.673 64.0583 446.79 63.75 448.04 63.75C449.323 63.75 450.448 64.0583 451.415 64.675C452.382 65.2917 453.132 66.1083 453.665 67.125C454.215 68.125 454.49 69.225 454.49 70.425C454.49 70.6917 454.482 70.9167 454.465 71.1H443.315C443.398 72.0333 443.665 72.8667 444.115 73.6C444.565 74.3167 445.14 74.8917 445.84 75.325C446.54 75.7417 447.307 75.95 448.14 75.95C448.99 75.95 449.79 75.7333 450.54 75.3C451.29 74.8667 451.823 74.3 452.14 73.6L453.615 74C453.348 74.6333 452.932 75.2 452.365 75.7C451.815 76.1833 451.173 76.5667 450.44 76.85C449.707 77.1167 448.915 77.25 448.065 77.25ZM443.265 69.875H452.89C452.823 68.9417 452.565 68.1167 452.115 67.4C451.665 66.6667 451.09 66.1 450.39 65.7C449.69 65.2833 448.915 65.075 448.065 65.075C447.215 65.075 446.44 65.2833 445.74 65.7C445.04 66.1 444.465 66.6667 444.015 67.4C443.582 68.1167 443.332 68.9417 443.265 69.875ZM464.11 77V65.325H462.31V63.975H464.11V63.625C464.11 62.025 464.452 60.775 465.135 59.875C465.835 58.9583 466.768 58.5 467.935 58.5C468.435 58.5 468.927 58.575 469.41 58.725C469.91 58.875 470.335 59.075 470.685 59.325L470.16 60.55C469.66 60.1667 469.027 59.975 468.26 59.975C467.477 59.975 466.868 60.2833 466.435 60.9C466.018 61.5167 465.81 62.4083 465.81 63.575V63.975H469.41V65.325H465.81V77H464.11ZM470.638 73.25C470.638 72.45 470.871 71.7583 471.338 71.175C471.805 70.575 472.446 70.1083 473.263 69.775C474.096 69.4417 475.055 69.275 476.138 69.275C476.771 69.275 477.43 69.3333 478.113 69.45C478.796 69.55 479.405 69.6917 479.938 69.875V68.775C479.938 67.675 479.613 66.8 478.963 66.15C478.313 65.5 477.413 65.175 476.263 65.175C475.58 65.175 474.896 65.3083 474.213 65.575C473.53 65.825 472.821 66.2 472.088 66.7L471.438 65.5C472.288 64.9167 473.121 64.4833 473.938 64.2C474.755 63.9 475.588 63.75 476.438 63.75C478.038 63.75 479.305 64.2083 480.238 65.125C481.171 66.0417 481.638 67.3083 481.638 68.925V74.95C481.638 75.4 481.846 75.6333 482.263 75.65V77C481.896 77.05 481.638 77.0667 481.488 77.05C481.071 77.0333 480.755 76.9 480.538 76.65C480.321 76.4 480.205 76.1333 480.188 75.85L480.163 74.9C479.58 75.65 478.821 76.2333 477.888 76.65C476.955 77.05 476.005 77.25 475.038 77.25C474.188 77.25 473.43 77.075 472.763 76.725C472.096 76.3583 471.571 75.875 471.188 75.275C470.821 74.6583 470.638 73.9833 470.638 73.25ZM479.363 74.25C479.746 73.8 479.938 73.3833 479.938 73V71.1C478.788 70.65 477.588 70.425 476.338 70.425C475.121 70.425 474.138 70.6667 473.388 71.15C472.638 71.6333 472.263 72.2917 472.263 73.125C472.263 73.8417 472.538 74.4917 473.088 75.075C473.655 75.6583 474.438 75.95 475.438 75.95C476.255 75.95 477.013 75.7917 477.713 75.475C478.43 75.1583 478.98 74.75 479.363 74.25ZM489.586 77.25C488.519 77.25 487.528 77.075 486.611 76.725C485.711 76.3583 484.919 75.825 484.236 75.125L484.936 73.925C485.669 74.6083 486.403 75.1083 487.136 75.425C487.886 75.725 488.678 75.875 489.511 75.875C490.511 75.875 491.328 75.675 491.961 75.275C492.611 74.8583 492.936 74.2667 492.936 73.5C492.936 72.9833 492.778 72.5917 492.461 72.325C492.161 72.0417 491.719 71.8167 491.136 71.65C490.569 71.4833 489.886 71.2917 489.086 71.075C488.186 70.825 487.428 70.5667 486.811 70.3C486.211 70.0167 485.753 69.6667 485.436 69.25C485.136 68.8167 484.986 68.2583 484.986 67.575C484.986 66.7417 485.194 66.0417 485.611 65.475C486.044 64.9083 486.628 64.4833 487.361 64.2C488.111 63.9 488.944 63.75 489.861 63.75C490.861 63.75 491.744 63.9083 492.511 64.225C493.278 64.5417 493.903 64.9833 494.386 65.55L493.561 66.7C493.111 66.1667 492.553 65.775 491.886 65.525C491.236 65.2583 490.528 65.125 489.761 65.125C489.228 65.125 488.719 65.2 488.236 65.35C487.753 65.4833 487.353 65.7167 487.036 66.05C486.736 66.3667 486.586 66.8083 486.586 67.375C486.586 68.075 486.844 68.5583 487.361 68.825C487.878 69.0917 488.661 69.375 489.711 69.675C490.694 69.9417 491.553 70.2083 492.286 70.475C493.019 70.7417 493.586 71.1 493.986 71.55C494.386 71.9833 494.586 72.5917 494.586 73.375C494.586 74.5917 494.128 75.5417 493.211 76.225C492.294 76.9083 491.086 77.25 489.586 77.25ZM503.646 76.375C503.446 76.4583 503.079 76.6083 502.546 76.825C502.013 77.0417 501.396 77.15 500.696 77.15C499.963 77.15 499.321 76.9417 498.771 76.525C498.221 76.1083 497.946 75.4833 497.946 74.65V65.325H496.146V63.975H497.946V59.575H499.646V63.975H502.646V65.325H499.646V74.175C499.679 74.6583 499.846 75.0167 500.146 75.25C500.463 75.4667 500.821 75.575 501.221 75.575C501.688 75.575 502.104 75.5 502.471 75.35C502.854 75.1833 503.096 75.0667 503.196 75L503.646 76.375ZM511.175 77.25C509.925 77.25 508.809 76.9417 507.825 76.325C506.842 75.7083 506.067 74.8833 505.5 73.85C504.934 72.8167 504.65 71.6833 504.65 70.45C504.65 69.2333 504.925 68.1167 505.475 67.1C506.042 66.0833 506.817 65.275 507.8 64.675C508.784 64.0583 509.9 63.75 511.15 63.75C512.434 63.75 513.559 64.0583 514.525 64.675C515.492 65.2917 516.242 66.1083 516.775 67.125C517.325 68.125 517.6 69.225 517.6 70.425C517.6 70.6917 517.592 70.9167 517.575 71.1H506.425C506.509 72.0333 506.775 72.8667 507.225 73.6C507.675 74.3167 508.25 74.8917 508.95 75.325C509.65 75.7417 510.417 75.95 511.25 75.95C512.1 75.95 512.9 75.7333 513.65 75.3C514.4 74.8667 514.934 74.3 515.25 73.6L516.725 74C516.459 74.6333 516.042 75.2 515.475 75.7C514.925 76.1833 514.284 76.5667 513.55 76.85C512.817 77.1167 512.025 77.25 511.175 77.25ZM506.375 69.875H516C515.934 68.9417 515.675 68.1167 515.225 67.4C514.775 66.6667 514.2 66.1 513.5 65.7C512.8 65.2833 512.025 65.075 511.175 65.075C510.325 65.075 509.55 65.2833 508.85 65.7C508.15 66.1 507.575 66.6667 507.125 67.4C506.692 68.1167 506.442 68.9417 506.375 69.875ZM524.498 77.25C523.431 77.25 522.44 77.075 521.523 76.725C520.623 76.3583 519.831 75.825 519.148 75.125L519.848 73.925C520.581 74.6083 521.315 75.1083 522.048 75.425C522.798 75.725 523.59 75.875 524.423 75.875C525.423 75.875 526.24 75.675 526.873 75.275C527.523 74.8583 527.848 74.2667 527.848 73.5C527.848 72.9833 527.69 72.5917 527.373 72.325C527.073 72.0417 526.631 71.8167 526.048 71.65C525.481 71.4833 524.798 71.2917 523.998 71.075C523.098 70.825 522.34 70.5667 521.723 70.3C521.123 70.0167 520.665 69.6667 520.348 69.25C520.048 68.8167 519.898 68.2583 519.898 67.575C519.898 66.7417 520.106 66.0417 520.523 65.475C520.956 64.9083 521.54 64.4833 522.273 64.2C523.023 63.9 523.856 63.75 524.773 63.75C525.773 63.75 526.656 63.9083 527.423 64.225C528.19 64.5417 528.815 64.9833 529.298 65.55L528.473 66.7C528.023 66.1667 527.465 65.775 526.798 65.525C526.148 65.2583 525.44 65.125 524.673 65.125C524.14 65.125 523.631 65.2 523.148 65.35C522.665 65.4833 522.265 65.7167 521.948 66.05C521.648 66.3667 521.498 66.8083 521.498 67.375C521.498 68.075 521.756 68.5583 522.273 68.825C522.79 69.0917 523.573 69.375 524.623 69.675C525.606 69.9417 526.465 70.2083 527.198 70.475C527.931 70.7417 528.498 71.1 528.898 71.55C529.298 71.9833 529.498 72.5917 529.498 73.375C529.498 74.5917 529.04 75.5417 528.123 76.225C527.206 76.9083 525.998 77.25 524.498 77.25ZM538.558 76.375C538.358 76.4583 537.991 76.6083 537.458 76.825C536.925 77.0417 536.308 77.15 535.608 77.15C534.875 77.15 534.233 76.9417 533.683 76.525C533.133 76.1083 532.858 75.4833 532.858 74.65V65.325H531.058V63.975H532.858V59.575H534.558V63.975H537.558V65.325H534.558V74.175C534.591 74.6583 534.758 75.0167 535.058 75.25C535.375 75.4667 535.733 75.575 536.133 75.575C536.6 75.575 537.016 75.5 537.383 75.35C537.766 75.1833 538.008 75.0667 538.108 75L538.558 76.375ZM553.704 77.25C552.621 77.25 551.646 76.9667 550.779 76.4C549.929 75.8333 549.254 75.1333 548.754 74.3V82.325H547.054V63.975H548.579V66.5C549.096 65.6833 549.779 65.025 550.629 64.525C551.496 64.0083 552.429 63.75 553.429 63.75C554.329 63.75 555.154 63.9417 555.904 64.325C556.654 64.6917 557.304 65.1917 557.854 65.825C558.421 66.4583 558.854 67.1833 559.154 68C559.454 68.8 559.604 69.6333 559.604 70.5C559.604 71.7167 559.354 72.8417 558.854 73.875C558.371 74.8917 557.679 75.7083 556.779 76.325C555.896 76.9417 554.871 77.25 553.704 77.25ZM553.229 75.75C554.179 75.75 554.996 75.5 555.679 75C556.379 74.4833 556.921 73.825 557.304 73.025C557.688 72.225 557.879 71.3833 557.879 70.5C557.879 69.5667 557.663 68.7 557.229 67.9C556.796 67.1 556.213 66.4583 555.479 65.975C554.763 65.4917 553.946 65.25 553.029 65.25C552.463 65.25 551.863 65.4 551.229 65.7C550.613 65.9833 550.063 66.375 549.579 66.875C549.113 67.3583 548.838 67.8917 548.754 68.475V72.475C549.138 73.3917 549.738 74.1667 550.554 74.8C551.371 75.4333 552.263 75.75 553.229 75.75ZM568.109 77.25C566.859 77.25 565.742 76.9417 564.759 76.325C563.776 75.7083 563.001 74.8833 562.434 73.85C561.867 72.8167 561.584 71.6833 561.584 70.45C561.584 69.2333 561.859 68.1167 562.409 67.1C562.976 66.0833 563.751 65.275 564.734 64.675C565.717 64.0583 566.834 63.75 568.084 63.75C569.367 63.75 570.492 64.0583 571.459 64.675C572.426 65.2917 573.176 66.1083 573.709 67.125C574.259 68.125 574.534 69.225 574.534 70.425C574.534 70.6917 574.526 70.9167 574.509 71.1H563.359C563.442 72.0333 563.709 72.8667 564.159 73.6C564.609 74.3167 565.184 74.8917 565.884 75.325C566.584 75.7417 567.351 75.95 568.184 75.95C569.034 75.95 569.834 75.7333 570.584 75.3C571.334 74.8667 571.867 74.3 572.184 73.6L573.659 74C573.392 74.6333 572.976 75.2 572.409 75.7C571.859 76.1833 571.217 76.5667 570.484 76.85C569.751 77.1167 568.959 77.25 568.109 77.25ZM563.309 69.875H572.934C572.867 68.9417 572.609 68.1167 572.159 67.4C571.709 66.6667 571.134 66.1 570.434 65.7C569.734 65.2833 568.959 65.075 568.109 65.075C567.259 65.075 566.484 65.2833 565.784 65.7C565.084 66.1 564.509 66.6667 564.059 67.4C563.626 68.1167 563.376 68.9417 563.309 69.875ZM583.657 65.475C582.523 65.5083 581.523 65.825 580.657 66.425C579.807 67.025 579.207 67.85 578.857 68.9V77H577.157V63.975H578.757V67.1C579.207 66.1833 579.798 65.4417 580.532 64.875C581.282 64.3083 582.073 63.9917 582.907 63.925C583.073 63.9083 583.215 63.9 583.332 63.9C583.448 63.9 583.557 63.9083 583.657 63.925V65.475ZM585.921 61.25V58.75H587.621V61.25H585.921ZM585.921 77V63.975H587.621V77H585.921ZM596.916 77.25C595.666 77.25 594.549 76.9417 593.566 76.325C592.599 75.7083 591.841 74.8917 591.291 73.875C590.741 72.8417 590.466 71.725 590.466 70.525C590.466 69.3083 590.741 68.1917 591.291 67.175C591.857 66.1417 592.624 65.3167 593.591 64.7C594.574 64.0667 595.682 63.75 596.916 63.75C598.166 63.75 599.274 64.0667 600.241 64.7C601.224 65.3167 601.991 66.1417 602.541 67.175C603.107 68.1917 603.391 69.3083 603.391 70.525C603.391 71.725 603.116 72.8417 602.566 73.875C602.016 74.8917 601.249 75.7083 600.266 76.325C599.299 76.9417 598.182 77.25 596.916 77.25ZM592.191 70.55C592.191 71.5167 592.399 72.4 592.816 73.2C593.249 73.9833 593.824 74.6083 594.541 75.075C595.257 75.525 596.049 75.75 596.916 75.75C597.782 75.75 598.574 75.5167 599.291 75.05C600.007 74.5833 600.582 73.95 601.016 73.15C601.449 72.35 601.666 71.4667 601.666 70.5C601.666 69.5333 601.449 68.65 601.016 67.85C600.582 67.05 600.007 66.4167 599.291 65.95C598.574 65.4833 597.782 65.25 596.916 65.25C596.066 65.25 595.282 65.4917 594.566 65.975C593.849 66.4417 593.274 67.075 592.841 67.875C592.407 68.675 592.191 69.5667 592.191 70.55ZM605.359 70.525C605.359 69.2917 605.609 68.1667 606.109 67.15C606.626 66.1167 607.334 65.2917 608.234 64.675C609.134 64.0583 610.159 63.75 611.309 63.75C612.392 63.75 613.359 64.0417 614.209 64.625C615.076 65.1917 615.751 65.8833 616.234 66.7V58.75H617.934V74.95C617.934 75.4 618.134 75.6333 618.534 75.65V77C618.201 77.05 617.942 77.0667 617.759 77.05C617.392 77.0333 617.076 76.9 616.809 76.65C616.559 76.3833 616.434 76.0833 616.434 75.75V74.475C615.917 75.325 615.217 76 614.334 76.5C613.451 77 612.534 77.25 611.584 77.25C610.684 77.25 609.851 77.0667 609.084 76.7C608.317 76.3333 607.651 75.8333 607.084 75.2C606.534 74.5667 606.109 73.85 605.809 73.05C605.509 72.2333 605.359 71.3917 605.359 70.525ZM616.234 72.525V68.5C616.017 67.9 615.667 67.3583 615.184 66.875C614.701 66.375 614.151 65.9833 613.534 65.7C612.934 65.4 612.334 65.25 611.734 65.25C610.801 65.25 609.984 65.5083 609.284 66.025C608.601 66.525 608.067 67.1833 607.684 68C607.301 68.8 607.109 69.6417 607.109 70.525C607.109 71.4583 607.317 72.325 607.734 73.125C608.167 73.925 608.751 74.5667 609.484 75.05C610.217 75.5167 611.042 75.75 611.959 75.75C612.526 75.75 613.117 75.6083 613.734 75.325C614.367 75.025 614.917 74.6333 615.384 74.15C615.867 73.6667 616.151 73.125 616.234 72.525ZM633.708 77.25C632.458 77.25 631.341 76.9417 630.358 76.325C629.391 75.7083 628.633 74.8917 628.083 73.875C627.533 72.8417 627.258 71.725 627.258 70.525C627.258 69.3083 627.533 68.1917 628.083 67.175C628.649 66.1417 629.416 65.3167 630.383 64.7C631.366 64.0667 632.474 63.75 633.708 63.75C634.958 63.75 636.066 64.0667 637.033 64.7C638.016 65.3167 638.783 66.1417 639.333 67.175C639.899 68.1917 640.183 69.3083 640.183 70.525C640.183 71.725 639.908 72.8417 639.358 73.875C638.808 74.8917 638.041 75.7083 637.058 76.325C636.091 76.9417 634.974 77.25 633.708 77.25ZM628.983 70.55C628.983 71.5167 629.191 72.4 629.608 73.2C630.041 73.9833 630.616 74.6083 631.333 75.075C632.049 75.525 632.841 75.75 633.708 75.75C634.574 75.75 635.366 75.5167 636.083 75.05C636.799 74.5833 637.374 73.95 637.808 73.15C638.241 72.35 638.458 71.4667 638.458 70.5C638.458 69.5333 638.241 68.65 637.808 67.85C637.374 67.05 636.799 66.4167 636.083 65.95C635.366 65.4833 634.574 65.25 633.708 65.25C632.858 65.25 632.074 65.4917 631.358 65.975C630.641 66.4417 630.066 67.075 629.633 67.875C629.199 68.675 628.983 69.5667 628.983 70.55ZM643.431 77V65.325H641.631V63.975H643.431V63.625C643.431 62.025 643.773 60.775 644.456 59.875C645.156 58.9583 646.089 58.5 647.256 58.5C647.756 58.5 648.248 58.575 648.731 58.725C649.231 58.875 649.656 59.075 650.006 59.325L649.481 60.55C648.981 60.1667 648.348 59.975 647.581 59.975C646.798 59.975 646.189 60.2833 645.756 60.9C645.339 61.5167 645.131 62.4083 645.131 63.575V63.975H648.731V65.325H645.131V77H643.431ZM104.208 106.375C104.008 106.458 103.641 106.608 103.108 106.825C102.574 107.042 101.958 107.15 101.258 107.15C100.524 107.15 99.8825 106.942 99.3325 106.525C98.7825 106.108 98.5075 105.483 98.5075 104.65V95.325H96.7075V93.975H98.5075V89.575H100.208V93.975H103.208V95.325H100.208V104.175C100.241 104.658 100.408 105.017 100.708 105.25C101.024 105.467 101.383 105.575 101.783 105.575C102.249 105.575 102.666 105.5 103.033 105.35C103.416 105.183 103.658 105.067 103.758 105L104.208 106.375ZM106.332 91.25V88.75H108.032V91.25H106.332ZM106.332 107V93.975H108.032V107H106.332ZM131.151 107H129.451V99.725C129.451 98.225 129.209 97.1167 128.726 96.4C128.243 95.6667 127.526 95.3 126.576 95.3C125.576 95.3 124.693 95.65 123.926 96.35C123.159 97.05 122.618 97.95 122.301 99.05V107H120.601V99.725C120.601 98.1917 120.359 97.075 119.876 96.375C119.409 95.6583 118.701 95.3 117.751 95.3C116.768 95.3 115.884 95.6417 115.101 96.325C114.334 97.0083 113.793 97.9083 113.476 99.025V107H111.776V93.975H113.326V96.925C113.859 95.925 114.559 95.15 115.426 94.6C116.293 94.0333 117.251 93.75 118.301 93.75C119.384 93.75 120.259 94.0667 120.926 94.7C121.593 95.3167 122.001 96.1167 122.151 97.1C123.351 94.8667 125.026 93.75 127.176 93.75C128.643 93.75 129.668 94.2667 130.251 95.3C130.851 96.3167 131.151 97.675 131.151 99.375V107ZM140.375 107.25C139.125 107.25 138.008 106.942 137.025 106.325C136.041 105.708 135.266 104.883 134.7 103.85C134.133 102.817 133.85 101.683 133.85 100.45C133.85 99.2333 134.125 98.1167 134.675 97.1C135.241 96.0833 136.016 95.275 137 94.675C137.983 94.0583 139.1 93.75 140.35 93.75C141.633 93.75 142.758 94.0583 143.725 94.675C144.691 95.2917 145.441 96.1083 145.975 97.125C146.525 98.125 146.8 99.225 146.8 100.425C146.8 100.692 146.791 100.917 146.775 101.1H135.625C135.708 102.033 135.975 102.867 136.425 103.6C136.875 104.317 137.45 104.892 138.15 105.325C138.85 105.742 139.616 105.95 140.45 105.95C141.3 105.95 142.1 105.733 142.85 105.3C143.6 104.867 144.133 104.3 144.45 103.6L145.925 104C145.658 104.633 145.241 105.2 144.675 105.7C144.125 106.183 143.483 106.567 142.75 106.85C142.016 107.117 141.225 107.25 140.375 107.25ZM135.575 99.875H145.2C145.133 98.9417 144.875 98.1167 144.425 97.4C143.975 96.6667 143.4 96.1 142.7 95.7C142 95.2833 141.225 95.075 140.375 95.075C139.525 95.075 138.75 95.2833 138.05 95.7C137.35 96.1 136.775 96.6667 136.325 97.4C135.891 98.1167 135.641 98.9417 135.575 99.875ZM171.486 93.975H173.161L167.561 107H166.086L163.361 100.525L160.661 107H159.186L153.586 93.975H155.236L159.986 105.25L162.386 99.375L160.186 94H161.711L163.361 98.225L165.036 94H166.536L164.361 99.375L166.761 105.25L171.486 93.975ZM175.423 91.25V88.75H177.123V91.25H175.423ZM175.423 107V93.975H177.123V107H175.423ZM187.118 106.375C186.918 106.458 186.551 106.608 186.018 106.825C185.484 107.042 184.868 107.15 184.168 107.15C183.434 107.15 182.793 106.942 182.243 106.525C181.693 106.108 181.418 105.483 181.418 104.65V95.325H179.618V93.975H181.418V89.575H183.118V93.975H186.118V95.325H183.118V104.175C183.151 104.658 183.318 105.017 183.618 105.25C183.934 105.467 184.293 105.575 184.693 105.575C185.159 105.575 185.576 105.5 185.943 105.35C186.326 105.183 186.568 105.067 186.668 105L187.118 106.375ZM200.192 107H198.492V99.725C198.492 96.775 197.492 95.3 195.492 95.3C194.842 95.3 194.208 95.4667 193.592 95.8C192.975 96.1167 192.425 96.5583 191.942 97.125C191.475 97.675 191.142 98.3083 190.942 99.025V107H189.242V88.75H190.942V96.925C191.458 95.9583 192.175 95.1917 193.092 94.625C194.025 94.0417 195.017 93.75 196.067 93.75C197.067 93.75 197.867 93.9917 198.467 94.475C199.067 94.9417 199.5 95.6 199.767 96.45C200.05 97.2833 200.192 98.2583 200.192 99.375V107ZM214.464 107.25C213.397 107.25 212.406 107.075 211.489 106.725C210.589 106.358 209.797 105.825 209.114 105.125L209.814 103.925C210.547 104.608 211.281 105.108 212.014 105.425C212.764 105.725 213.556 105.875 214.389 105.875C215.389 105.875 216.206 105.675 216.839 105.275C217.489 104.858 217.814 104.267 217.814 103.5C217.814 102.983 217.656 102.592 217.339 102.325C217.039 102.042 216.597 101.817 216.014 101.65C215.447 101.483 214.764 101.292 213.964 101.075C213.064 100.825 212.306 100.567 211.689 100.3C211.089 100.017 210.631 99.6667 210.314 99.25C210.014 98.8167 209.864 98.2583 209.864 97.575C209.864 96.7417 210.072 96.0417 210.489 95.475C210.922 94.9083 211.506 94.4833 212.239 94.2C212.989 93.9 213.822 93.75 214.739 93.75C215.739 93.75 216.622 93.9083 217.389 94.225C218.156 94.5417 218.781 94.9833 219.264 95.55L218.439 96.7C217.989 96.1667 217.431 95.775 216.764 95.525C216.114 95.2583 215.406 95.125 214.639 95.125C214.106 95.125 213.597 95.2 213.114 95.35C212.631 95.4833 212.231 95.7167 211.914 96.05C211.614 96.3667 211.464 96.8083 211.464 97.375C211.464 98.075 211.722 98.5583 212.239 98.825C212.756 99.0917 213.539 99.375 214.589 99.675C215.572 99.9417 216.431 100.208 217.164 100.475C217.897 100.742 218.464 101.1 218.864 101.55C219.264 101.983 219.464 102.592 219.464 103.375C219.464 104.592 219.006 105.542 218.089 106.225C217.172 106.908 215.964 107.25 214.464 107.25ZM221.224 103.25C221.224 102.45 221.457 101.758 221.924 101.175C222.391 100.575 223.032 100.108 223.849 99.775C224.682 99.4417 225.641 99.275 226.724 99.275C227.357 99.275 228.016 99.3333 228.699 99.45C229.382 99.55 229.991 99.6917 230.524 99.875V98.775C230.524 97.675 230.199 96.8 229.549 96.15C228.899 95.5 227.999 95.175 226.849 95.175C226.166 95.175 225.482 95.3083 224.799 95.575C224.116 95.825 223.407 96.2 222.674 96.7L222.024 95.5C222.874 94.9167 223.707 94.4833 224.524 94.2C225.341 93.9 226.174 93.75 227.024 93.75C228.624 93.75 229.891 94.2083 230.824 95.125C231.757 96.0417 232.224 97.3083 232.224 98.925V104.95C232.224 105.4 232.432 105.633 232.849 105.65V107C232.482 107.05 232.224 107.067 232.074 107.05C231.657 107.033 231.341 106.9 231.124 106.65C230.907 106.4 230.791 106.133 230.774 105.85L230.749 104.9C230.166 105.65 229.407 106.233 228.474 106.65C227.541 107.05 226.591 107.25 225.624 107.25C224.774 107.25 224.016 107.075 223.349 106.725C222.682 106.358 222.157 105.875 221.774 105.275C221.407 104.658 221.224 103.983 221.224 103.25ZM229.949 104.25C230.332 103.8 230.524 103.383 230.524 103V101.1C229.374 100.65 228.174 100.425 226.924 100.425C225.707 100.425 224.724 100.667 223.974 101.15C223.224 101.633 222.849 102.292 222.849 103.125C222.849 103.842 223.124 104.492 223.674 105.075C224.241 105.658 225.024 105.95 226.024 105.95C226.841 105.95 227.599 105.792 228.299 105.475C229.016 105.158 229.566 104.75 229.949 104.25ZM236.424 107V95.325H234.624V93.975H236.424V93.625C236.424 92.025 236.766 90.775 237.449 89.875C238.149 88.9583 239.083 88.5 240.249 88.5C240.749 88.5 241.241 88.575 241.724 88.725C242.224 88.875 242.649 89.075 242.999 89.325L242.474 90.55C241.974 90.1667 241.341 89.975 240.574 89.975C239.791 89.975 239.183 90.2833 238.749 90.9C238.333 91.5167 238.124 92.4083 238.124 93.575V93.975H241.724V95.325H238.124V107H236.424ZM249.286 107.25C248.036 107.25 246.919 106.942 245.936 106.325C244.952 105.708 244.177 104.883 243.611 103.85C243.044 102.817 242.761 101.683 242.761 100.45C242.761 99.2333 243.036 98.1167 243.586 97.1C244.152 96.0833 244.927 95.275 245.911 94.675C246.894 94.0583 248.011 93.75 249.261 93.75C250.544 93.75 251.669 94.0583 252.636 94.675C253.602 95.2917 254.352 96.1083 254.886 97.125C255.436 98.125 255.711 99.225 255.711 100.425C255.711 100.692 255.702 100.917 255.686 101.1H244.536C244.619 102.033 244.886 102.867 245.336 103.6C245.786 104.317 246.361 104.892 247.061 105.325C247.761 105.742 248.527 105.95 249.361 105.95C250.211 105.95 251.011 105.733 251.761 105.3C252.511 104.867 253.044 104.3 253.361 103.6L254.836 104C254.569 104.633 254.152 105.2 253.586 105.7C253.036 106.183 252.394 106.567 251.661 106.85C250.927 107.117 250.136 107.25 249.286 107.25ZM244.486 99.875H254.111C254.044 98.9417 253.786 98.1167 253.336 97.4C252.886 96.6667 252.311 96.1 251.611 95.7C250.911 95.2833 250.136 95.075 249.286 95.075C248.436 95.075 247.661 95.2833 246.961 95.7C246.261 96.1 245.686 96.6667 245.236 97.4C244.802 98.1167 244.552 98.9417 244.486 99.875ZM264.461 106.375C264.261 106.458 263.895 106.608 263.361 106.825C262.828 107.042 262.211 107.15 261.511 107.15C260.778 107.15 260.136 106.942 259.586 106.525C259.036 106.108 258.761 105.483 258.761 104.65V95.325H256.961V93.975H258.761V89.575H260.461V93.975H263.461V95.325H260.461V104.175C260.495 104.658 260.661 105.017 260.961 105.25C261.278 105.467 261.636 105.575 262.036 105.575C262.503 105.575 262.92 105.5 263.286 105.35C263.67 105.183 263.911 105.067 264.011 105L264.461 106.375ZM267.335 111C267.569 111.017 267.794 111.025 268.01 111.025C268.227 111.042 268.385 111.033 268.485 111C268.685 110.983 268.869 110.867 269.035 110.65C269.219 110.45 269.435 110.067 269.685 109.5C269.952 108.95 270.31 108.117 270.76 107L265.085 93.975H266.885L271.66 105.25L276.06 93.975H277.76L271.01 110.775C270.827 111.258 270.519 111.675 270.085 112.025C269.652 112.375 269.077 112.558 268.36 112.575C268.21 112.592 268.052 112.592 267.885 112.575C267.719 112.575 267.535 112.558 267.335 112.525V111ZM277.981 107V104.55H279.456V107H277.981ZM303.039 102.425C303.039 103.308 302.814 104.1 302.364 104.8C301.914 105.483 301.306 106.025 300.539 106.425C299.789 106.808 298.964 107 298.064 107H289.689V89.25H298.239C299.073 89.25 299.789 89.475 300.389 89.925C300.989 90.3583 301.456 90.925 301.789 91.625C302.123 92.3083 302.289 93.025 302.289 93.775C302.289 94.6583 302.064 95.475 301.614 96.225C301.164 96.975 300.539 97.5333 299.739 97.9C300.739 98.2 301.539 98.7583 302.139 99.575C302.739 100.392 303.039 101.342 303.039 102.425ZM291.439 90.775V97.325H297.539C298.123 97.325 298.639 97.175 299.089 96.875C299.556 96.5583 299.914 96.1583 300.164 95.675C300.431 95.175 300.564 94.6333 300.564 94.05C300.564 93.45 300.439 92.9 300.189 92.4C299.939 91.9 299.598 91.5083 299.164 91.225C298.731 90.925 298.239 90.775 297.689 90.775H291.439ZM301.289 102.125C301.289 101.542 301.156 100.992 300.889 100.475C300.623 99.9583 300.256 99.5417 299.789 99.225C299.339 98.9083 298.823 98.75 298.239 98.75H291.439V105.475H298.064C298.664 105.475 299.206 105.317 299.689 105C300.173 104.683 300.556 104.275 300.839 103.775C301.139 103.258 301.289 102.708 301.289 102.125ZM311.615 107.25C310.365 107.25 309.248 106.942 308.265 106.325C307.281 105.708 306.506 104.883 305.94 103.85C305.373 102.817 305.09 101.683 305.09 100.45C305.09 99.2333 305.365 98.1167 305.915 97.1C306.481 96.0833 307.256 95.275 308.24 94.675C309.223 94.0583 310.34 93.75 311.59 93.75C312.873 93.75 313.998 94.0583 314.965 94.675C315.931 95.2917 316.681 96.1083 317.215 97.125C317.765 98.125 318.04 99.225 318.04 100.425C318.04 100.692 318.031 100.917 318.015 101.1H306.865C306.948 102.033 307.215 102.867 307.665 103.6C308.115 104.317 308.69 104.892 309.39 105.325C310.09 105.742 310.856 105.95 311.69 105.95C312.54 105.95 313.34 105.733 314.09 105.3C314.84 104.867 315.373 104.3 315.69 103.6L317.165 104C316.898 104.633 316.481 105.2 315.915 105.7C315.365 106.183 314.723 106.567 313.99 106.85C313.256 107.117 312.465 107.25 311.615 107.25ZM306.815 99.875H316.44C316.373 98.9417 316.115 98.1167 315.665 97.4C315.215 96.6667 314.64 96.1 313.94 95.7C313.24 95.2833 312.465 95.075 311.615 95.075C310.765 95.075 309.99 95.2833 309.29 95.7C308.59 96.1 308.015 96.6667 307.565 97.4C307.131 98.1167 306.881 98.9417 306.815 99.875ZM326.313 107.25C325.046 107.25 323.921 106.942 322.938 106.325C321.954 105.692 321.179 104.867 320.613 103.85C320.046 102.817 319.763 101.683 319.763 100.45C319.763 99.2167 320.038 98.1 320.588 97.1C321.138 96.0833 321.904 95.275 322.888 94.675C323.871 94.0583 325.004 93.75 326.288 93.75C327.504 93.75 328.571 94.0333 329.488 94.6C330.421 95.15 331.121 95.9 331.588 96.85L329.938 97.375C329.571 96.7083 329.054 96.1917 328.388 95.825C327.738 95.4417 327.013 95.25 326.213 95.25C325.329 95.25 324.529 95.475 323.813 95.925C323.113 96.375 322.546 97 322.113 97.8C321.696 98.5833 321.488 99.4667 321.488 100.45C321.488 101.433 321.704 102.325 322.138 103.125C322.571 103.925 323.146 104.567 323.863 105.05C324.579 105.517 325.371 105.75 326.238 105.75C326.804 105.75 327.354 105.65 327.888 105.45C328.421 105.25 328.879 104.983 329.263 104.65C329.646 104.3 329.904 103.925 330.038 103.525L331.713 104.025C331.479 104.642 331.096 105.2 330.563 105.7C330.029 106.183 329.396 106.567 328.663 106.85C327.929 107.117 327.146 107.25 326.313 107.25ZM333.333 103.25C333.333 102.45 333.567 101.758 334.033 101.175C334.5 100.575 335.142 100.108 335.958 99.775C336.792 99.4417 337.75 99.275 338.833 99.275C339.467 99.275 340.125 99.3333 340.808 99.45C341.492 99.55 342.1 99.6917 342.633 99.875V98.775C342.633 97.675 342.308 96.8 341.658 96.15C341.008 95.5 340.108 95.175 338.958 95.175C338.275 95.175 337.592 95.3083 336.908 95.575C336.225 95.825 335.517 96.2 334.783 96.7L334.133 95.5C334.983 94.9167 335.817 94.4833 336.633 94.2C337.45 93.9 338.283 93.75 339.133 93.75C340.733 93.75 342 94.2083 342.933 95.125C343.867 96.0417 344.333 97.3083 344.333 98.925V104.95C344.333 105.4 344.542 105.633 344.958 105.65V107C344.592 107.05 344.333 107.067 344.183 107.05C343.767 107.033 343.45 106.9 343.233 106.65C343.017 106.4 342.9 106.133 342.883 105.85L342.858 104.9C342.275 105.65 341.517 106.233 340.583 106.65C339.65 107.05 338.7 107.25 337.733 107.25C336.883 107.25 336.125 107.075 335.458 106.725C334.792 106.358 334.267 105.875 333.883 105.275C333.517 104.658 333.333 103.983 333.333 103.25ZM342.058 104.25C342.442 103.8 342.633 103.383 342.633 103V101.1C341.483 100.65 340.283 100.425 339.033 100.425C337.817 100.425 336.833 100.667 336.083 101.15C335.333 101.633 334.958 102.292 334.958 103.125C334.958 103.842 335.233 104.492 335.783 105.075C336.35 105.658 337.133 105.95 338.133 105.95C338.95 105.95 339.708 105.792 340.408 105.475C341.125 105.158 341.675 104.75 342.058 104.25ZM347.881 101.625V93.975H349.581V101.325C349.581 104.275 350.59 105.75 352.606 105.75C353.606 105.75 354.54 105.425 355.406 104.775C356.29 104.125 356.923 103.258 357.306 102.175V93.975H359.006V104.95C359.006 105.4 359.206 105.633 359.606 105.65V107C359.406 107.033 359.248 107.05 359.131 107.05C359.031 107.05 358.923 107.05 358.806 107.05C358.456 107.017 358.156 106.883 357.906 106.65C357.673 106.417 357.556 106.133 357.556 105.8L357.506 104.05C356.94 105.067 356.165 105.858 355.181 106.425C354.215 106.975 353.165 107.25 352.031 107.25C349.265 107.25 347.881 105.375 347.881 101.625ZM367.125 107.25C366.058 107.25 365.067 107.075 364.15 106.725C363.25 106.358 362.458 105.825 361.775 105.125L362.475 103.925C363.208 104.608 363.942 105.108 364.675 105.425C365.425 105.725 366.217 105.875 367.05 105.875C368.05 105.875 368.867 105.675 369.5 105.275C370.15 104.858 370.475 104.267 370.475 103.5C370.475 102.983 370.317 102.592 370 102.325C369.7 102.042 369.258 101.817 368.675 101.65C368.108 101.483 367.425 101.292 366.625 101.075C365.725 100.825 364.967 100.567 364.35 100.3C363.75 100.017 363.292 99.6667 362.975 99.25C362.675 98.8167 362.525 98.2583 362.525 97.575C362.525 96.7417 362.733 96.0417 363.15 95.475C363.583 94.9083 364.167 94.4833 364.9 94.2C365.65 93.9 366.483 93.75 367.4 93.75C368.4 93.75 369.283 93.9083 370.05 94.225C370.817 94.5417 371.442 94.9833 371.925 95.55L371.1 96.7C370.65 96.1667 370.092 95.775 369.425 95.525C368.775 95.2583 368.067 95.125 367.3 95.125C366.767 95.125 366.258 95.2 365.775 95.35C365.292 95.4833 364.892 95.7167 364.575 96.05C364.275 96.3667 364.125 96.8083 364.125 97.375C364.125 98.075 364.383 98.5583 364.9 98.825C365.417 99.0917 366.2 99.375 367.25 99.675C368.233 99.9417 369.092 100.208 369.825 100.475C370.558 100.742 371.125 101.1 371.525 101.55C371.925 101.983 372.125 102.592 372.125 103.375C372.125 104.592 371.667 105.542 370.75 106.225C369.833 106.908 368.625 107.25 367.125 107.25ZM380.56 107.25C379.31 107.25 378.193 106.942 377.21 106.325C376.227 105.708 375.452 104.883 374.885 103.85C374.318 102.817 374.035 101.683 374.035 100.45C374.035 99.2333 374.31 98.1167 374.86 97.1C375.427 96.0833 376.202 95.275 377.185 94.675C378.168 94.0583 379.285 93.75 380.535 93.75C381.818 93.75 382.943 94.0583 383.91 94.675C384.877 95.2917 385.627 96.1083 386.16 97.125C386.71 98.125 386.985 99.225 386.985 100.425C386.985 100.692 386.977 100.917 386.96 101.1H375.81C375.893 102.033 376.16 102.867 376.61 103.6C377.06 104.317 377.635 104.892 378.335 105.325C379.035 105.742 379.802 105.95 380.635 105.95C381.485 105.95 382.285 105.733 383.035 105.3C383.785 104.867 384.318 104.3 384.635 103.6L386.11 104C385.843 104.633 385.427 105.2 384.86 105.7C384.31 106.183 383.668 106.567 382.935 106.85C382.202 107.117 381.41 107.25 380.56 107.25ZM375.76 99.875H385.385C385.318 98.9417 385.06 98.1167 384.61 97.4C384.16 96.6667 383.585 96.1 382.885 95.7C382.185 95.2833 381.41 95.075 380.56 95.075C379.71 95.075 378.935 95.2833 378.235 95.7C377.535 96.1 376.96 96.6667 376.51 97.4C376.077 98.1167 375.827 98.9417 375.76 99.875ZM396.046 111C396.28 111.017 396.505 111.025 396.721 111.025C396.938 111.042 397.096 111.033 397.196 111C397.396 110.983 397.58 110.867 397.746 110.65C397.93 110.45 398.146 110.067 398.396 109.5C398.663 108.95 399.021 108.117 399.471 107L393.796 93.975H395.596L400.371 105.25L404.771 93.975H406.471L399.721 110.775C399.538 111.258 399.23 111.675 398.796 112.025C398.363 112.375 397.788 112.558 397.071 112.575C396.921 112.592 396.763 112.592 396.596 112.575C396.43 112.575 396.246 112.558 396.046 112.525V111ZM413.932 107.25C412.682 107.25 411.566 106.942 410.582 106.325C409.616 105.708 408.857 104.892 408.307 103.875C407.757 102.842 407.482 101.725 407.482 100.525C407.482 99.3083 407.757 98.1917 408.307 97.175C408.874 96.1417 409.641 95.3167 410.607 94.7C411.591 94.0667 412.699 93.75 413.932 93.75C415.182 93.75 416.291 94.0667 417.257 94.7C418.241 95.3167 419.007 96.1417 419.557 97.175C420.124 98.1917 420.407 99.3083 420.407 100.525C420.407 101.725 420.132 102.842 419.582 103.875C419.032 104.892 418.266 105.708 417.282 106.325C416.316 106.942 415.199 107.25 413.932 107.25ZM409.207 100.55C409.207 101.517 409.416 102.4 409.832 103.2C410.266 103.983 410.841 104.608 411.557 105.075C412.274 105.525 413.066 105.75 413.932 105.75C414.799 105.75 415.591 105.517 416.307 105.05C417.024 104.583 417.599 103.95 418.032 103.15C418.466 102.35 418.682 101.467 418.682 100.5C418.682 99.5333 418.466 98.65 418.032 97.85C417.599 97.05 417.024 96.4167 416.307 95.95C415.591 95.4833 414.799 95.25 413.932 95.25C413.082 95.25 412.299 95.4917 411.582 95.975C410.866 96.4417 410.291 97.075 409.857 97.875C409.424 98.675 409.207 99.5667 409.207 100.55ZM423.125 101.625V93.975H424.825V101.325C424.825 104.275 425.834 105.75 427.85 105.75C428.85 105.75 429.784 105.425 430.65 104.775C431.534 104.125 432.167 103.258 432.55 102.175V93.975H434.25V104.95C434.25 105.4 434.45 105.633 434.85 105.65V107C434.65 107.033 434.492 107.05 434.375 107.05C434.275 107.05 434.167 107.05 434.05 107.05C433.7 107.017 433.4 106.883 433.15 106.65C432.917 106.417 432.8 106.133 432.8 105.8L432.75 104.05C432.184 105.067 431.409 105.858 430.425 106.425C429.459 106.975 428.409 107.25 427.275 107.25C424.509 107.25 423.125 105.375 423.125 101.625ZM444.594 95.475C443.461 95.5083 442.461 95.825 441.594 96.425C440.744 97.025 440.144 97.85 439.794 98.9V107H438.094V93.975H439.694V97.1C440.144 96.1833 440.736 95.4417 441.469 94.875C442.219 94.3083 443.011 93.9917 443.844 93.925C444.011 93.9083 444.153 93.9 444.269 93.9C444.386 93.9 444.494 93.9083 444.594 93.925V95.475ZM458.27 107.25C457.02 107.25 455.903 106.942 454.92 106.325C453.937 105.708 453.162 104.883 452.595 103.85C452.028 102.817 451.745 101.683 451.745 100.45C451.745 99.2333 452.02 98.1167 452.57 97.1C453.137 96.0833 453.912 95.275 454.895 94.675C455.878 94.0583 456.995 93.75 458.245 93.75C459.528 93.75 460.653 94.0583 461.62 94.675C462.587 95.2917 463.337 96.1083 463.87 97.125C464.42 98.125 464.695 99.225 464.695 100.425C464.695 100.692 464.687 100.917 464.67 101.1H453.52C453.603 102.033 453.87 102.867 454.32 103.6C454.77 104.317 455.345 104.892 456.045 105.325C456.745 105.742 457.512 105.95 458.345 105.95C459.195 105.95 459.995 105.733 460.745 105.3C461.495 104.867 462.028 104.3 462.345 103.6L463.82 104C463.553 104.633 463.137 105.2 462.57 105.7C462.02 106.183 461.378 106.567 460.645 106.85C459.912 107.117 459.12 107.25 458.27 107.25ZM453.47 99.875H463.095C463.028 98.9417 462.77 98.1167 462.32 97.4C461.87 96.6667 461.295 96.1 460.595 95.7C459.895 95.2833 459.12 95.075 458.27 95.075C457.42 95.075 456.645 95.2833 455.945 95.7C455.245 96.1 454.67 96.6667 454.22 97.4C453.787 98.1167 453.537 98.9417 453.47 99.875ZM486.693 107H484.993V99.725C484.993 98.225 484.751 97.1167 484.268 96.4C483.785 95.6667 483.068 95.3 482.118 95.3C481.118 95.3 480.235 95.65 479.468 96.35C478.701 97.05 478.16 97.95 477.843 99.05V107H476.143V99.725C476.143 98.1917 475.901 97.075 475.418 96.375C474.951 95.6583 474.243 95.3 473.293 95.3C472.31 95.3 471.426 95.6417 470.643 96.325C469.876 97.0083 469.335 97.9083 469.018 99.025V107H467.318V93.975H468.868V96.925C469.401 95.925 470.101 95.15 470.968 94.6C471.835 94.0333 472.793 93.75 473.843 93.75C474.926 93.75 475.801 94.0667 476.468 94.7C477.135 95.3167 477.543 96.1167 477.693 97.1C478.893 94.8667 480.568 93.75 482.718 93.75C484.185 93.75 485.21 94.2667 485.793 95.3C486.393 96.3167 486.693 97.675 486.693 99.375V107ZM495.917 107.25C494.667 107.25 493.55 106.942 492.567 106.325C491.583 105.708 490.808 104.883 490.242 103.85C489.675 102.817 489.392 101.683 489.392 100.45C489.392 99.2333 489.667 98.1167 490.217 97.1C490.783 96.0833 491.558 95.275 492.542 94.675C493.525 94.0583 494.642 93.75 495.892 93.75C497.175 93.75 498.3 94.0583 499.267 94.675C500.233 95.2917 500.983 96.1083 501.517 97.125C502.067 98.125 502.342 99.225 502.342 100.425C502.342 100.692 502.333 100.917 502.317 101.1H491.167C491.25 102.033 491.517 102.867 491.967 103.6C492.417 104.317 492.992 104.892 493.692 105.325C494.392 105.742 495.158 105.95 495.992 105.95C496.842 105.95 497.642 105.733 498.392 105.3C499.142 104.867 499.675 104.3 499.992 103.6L501.467 104C501.2 104.633 500.783 105.2 500.217 105.7C499.667 106.183 499.025 106.567 498.292 106.85C497.558 107.117 496.767 107.25 495.917 107.25ZM491.117 99.875H500.742C500.675 98.9417 500.417 98.1167 499.967 97.4C499.517 96.6667 498.942 96.1 498.242 95.7C497.542 95.2833 496.767 95.075 495.917 95.075C495.067 95.075 494.292 95.2833 493.592 95.7C492.892 96.1 492.317 96.6667 491.867 97.4C491.433 98.1167 491.183 98.9417 491.117 99.875ZM511.464 95.475C510.331 95.5083 509.331 95.825 508.464 96.425C507.614 97.025 507.014 97.85 506.664 98.9V107H504.964V93.975H506.564V97.1C507.014 96.1833 507.606 95.4417 508.339 94.875C509.089 94.3083 509.881 93.9917 510.714 93.925C510.881 93.9083 511.023 93.9 511.139 93.9C511.256 93.9 511.364 93.9083 511.464 93.925V95.475ZM518.612 107.175C517.712 107.175 516.887 106.992 516.137 106.625C515.404 106.258 514.762 105.767 514.212 105.15C513.679 104.517 513.262 103.8 512.962 103C512.662 102.2 512.512 101.375 512.512 100.525C512.512 99.3083 512.771 98.1917 513.287 97.175C513.804 96.1417 514.512 95.3167 515.412 94.7C516.329 94.0667 517.379 93.75 518.562 93.75C519.679 93.75 520.646 94.0333 521.462 94.6C522.296 95.1667 522.996 95.8667 523.562 96.7V93.975H525.087V107.05C525.087 108.267 524.796 109.283 524.212 110.1C523.629 110.917 522.854 111.533 521.887 111.95C520.921 112.367 519.862 112.575 518.712 112.575C517.212 112.575 516.004 112.308 515.087 111.775C514.187 111.242 513.446 110.525 512.862 109.625L513.912 108.8C514.429 109.617 515.112 110.225 515.962 110.625C516.829 111.025 517.746 111.225 518.712 111.225C519.562 111.225 520.337 111.067 521.037 110.75C521.754 110.45 522.321 109.992 522.737 109.375C523.171 108.758 523.387 107.983 523.387 107.05V104.475C522.887 105.292 522.204 105.95 521.337 106.45C520.471 106.933 519.562 107.175 518.612 107.175ZM519.087 105.75C519.771 105.75 520.421 105.592 521.037 105.275C521.654 104.958 522.171 104.558 522.587 104.075C523.021 103.575 523.287 103.058 523.387 102.525V98.5C523.137 97.8667 522.779 97.3083 522.312 96.825C521.846 96.325 521.312 95.9417 520.712 95.675C520.112 95.3917 519.504 95.25 518.887 95.25C517.921 95.25 517.087 95.5167 516.387 96.05C515.704 96.5667 515.171 97.2333 514.787 98.05C514.421 98.85 514.237 99.6833 514.237 100.55C514.237 101.483 514.454 102.35 514.887 103.15C515.321 103.933 515.904 104.567 516.637 105.05C517.371 105.517 518.187 105.75 519.087 105.75ZM534.466 107.25C533.216 107.25 532.1 106.942 531.116 106.325C530.133 105.708 529.358 104.883 528.791 103.85C528.225 102.817 527.941 101.683 527.941 100.45C527.941 99.2333 528.216 98.1167 528.766 97.1C529.333 96.0833 530.108 95.275 531.091 94.675C532.075 94.0583 533.191 93.75 534.441 93.75C535.725 93.75 536.85 94.0583 537.816 94.675C538.783 95.2917 539.533 96.1083 540.066 97.125C540.616 98.125 540.891 99.225 540.891 100.425C540.891 100.692 540.883 100.917 540.866 101.1H529.716C529.8 102.033 530.066 102.867 530.516 103.6C530.966 104.317 531.541 104.892 532.241 105.325C532.941 105.742 533.708 105.95 534.541 105.95C535.391 105.95 536.191 105.733 536.941 105.3C537.691 104.867 538.225 104.3 538.541 103.6L540.016 104C539.75 104.633 539.333 105.2 538.766 105.7C538.216 106.183 537.575 106.567 536.841 106.85C536.108 107.117 535.316 107.25 534.466 107.25ZM529.666 99.875H539.291C539.225 98.9417 538.966 98.1167 538.516 97.4C538.066 96.6667 537.491 96.1 536.791 95.7C536.091 95.2833 535.316 95.075 534.466 95.075C533.616 95.075 532.841 95.2833 532.141 95.7C531.441 96.1 530.866 96.6667 530.416 97.4C529.983 98.1167 529.733 98.9417 529.666 99.875ZM554.464 107H552.764V99.725C552.764 98.1917 552.531 97.075 552.064 96.375C551.614 95.6583 550.914 95.3 549.964 95.3C549.297 95.3 548.639 95.4667 547.989 95.8C547.339 96.1167 546.764 96.5583 546.264 97.125C545.781 97.675 545.431 98.3083 545.214 99.025V107H543.514V93.975H545.064V96.925C545.581 95.975 546.339 95.2083 547.339 94.625C548.339 94.0417 549.422 93.75 550.589 93.75C551.556 93.75 552.322 93.9833 552.889 94.45C553.456 94.9 553.856 95.55 554.089 96.4C554.339 97.2333 554.464 98.225 554.464 99.375V107ZM563.739 107.25C562.473 107.25 561.348 106.942 560.364 106.325C559.381 105.692 558.606 104.867 558.039 103.85C557.473 102.817 557.189 101.683 557.189 100.45C557.189 99.2167 557.464 98.1 558.014 97.1C558.564 96.0833 559.331 95.275 560.314 94.675C561.298 94.0583 562.431 93.75 563.714 93.75C564.931 93.75 565.998 94.0333 566.914 94.6C567.848 95.15 568.548 95.9 569.014 96.85L567.364 97.375C566.998 96.7083 566.481 96.1917 565.814 95.825C565.164 95.4417 564.439 95.25 563.639 95.25C562.756 95.25 561.956 95.475 561.239 95.925C560.539 96.375 559.973 97 559.539 97.8C559.123 98.5833 558.914 99.4667 558.914 100.45C558.914 101.433 559.131 102.325 559.564 103.125C559.998 103.925 560.573 104.567 561.289 105.05C562.006 105.517 562.798 105.75 563.664 105.75C564.231 105.75 564.781 105.65 565.314 105.45C565.848 105.25 566.306 104.983 566.689 104.65C567.073 104.3 567.331 103.925 567.464 103.525L569.139 104.025C568.906 104.642 568.523 105.2 567.989 105.7C567.456 106.183 566.823 106.567 566.089 106.85C565.356 107.117 564.573 107.25 563.739 107.25ZM572.365 111C572.598 111.017 572.823 111.025 573.04 111.025C573.256 111.042 573.415 111.033 573.515 111C573.715 110.983 573.898 110.867 574.065 110.65C574.248 110.45 574.465 110.067 574.715 109.5C574.981 108.95 575.34 108.117 575.79 107L570.115 93.975H571.915L576.69 105.25L581.09 93.975H582.79L576.04 110.775C575.856 111.258 575.548 111.675 575.115 112.025C574.681 112.375 574.106 112.558 573.39 112.575C573.24 112.592 573.081 112.592 572.915 112.575C572.748 112.575 572.565 112.558 572.365 112.525V111ZM241.646 121.25V118.75H243.346V121.25H241.646ZM241.646 137V123.975H243.346V137H241.646ZM251.366 137.25C250.299 137.25 249.307 137.075 248.391 136.725C247.491 136.358 246.699 135.825 246.016 135.125L246.716 133.925C247.449 134.608 248.182 135.108 248.916 135.425C249.666 135.725 250.457 135.875 251.291 135.875C252.291 135.875 253.107 135.675 253.741 135.275C254.391 134.858 254.716 134.267 254.716 133.5C254.716 132.983 254.557 132.592 254.241 132.325C253.941 132.042 253.499 131.817 252.916 131.65C252.349 131.483 251.666 131.292 250.866 131.075C249.966 130.825 249.207 130.567 248.591 130.3C247.991 130.017 247.532 129.667 247.216 129.25C246.916 128.817 246.766 128.258 246.766 127.575C246.766 126.742 246.974 126.042 247.391 125.475C247.824 124.908 248.407 124.483 249.141 124.2C249.891 123.9 250.724 123.75 251.641 123.75C252.641 123.75 253.524 123.908 254.291 124.225C255.057 124.542 255.682 124.983 256.166 125.55L255.341 126.7C254.891 126.167 254.332 125.775 253.666 125.525C253.016 125.258 252.307 125.125 251.541 125.125C251.007 125.125 250.499 125.2 250.016 125.35C249.532 125.483 249.132 125.717 248.816 126.05C248.516 126.367 248.366 126.808 248.366 127.375C248.366 128.075 248.624 128.558 249.141 128.825C249.657 129.092 250.441 129.375 251.491 129.675C252.474 129.942 253.332 130.208 254.066 130.475C254.799 130.742 255.366 131.1 255.766 131.55C256.166 131.983 256.366 132.592 256.366 133.375C256.366 134.592 255.907 135.542 254.991 136.225C254.074 136.908 252.866 137.25 251.366 137.25ZM271.098 137.25C269.848 137.25 268.731 136.942 267.748 136.325C266.781 135.708 266.023 134.892 265.473 133.875C264.923 132.842 264.648 131.725 264.648 130.525C264.648 129.308 264.923 128.192 265.473 127.175C266.04 126.142 266.806 125.317 267.773 124.7C268.756 124.067 269.865 123.75 271.098 123.75C272.348 123.75 273.456 124.067 274.423 124.7C275.406 125.317 276.173 126.142 276.723 127.175C277.29 128.192 277.573 129.308 277.573 130.525C277.573 131.725 277.298 132.842 276.748 133.875C276.198 134.892 275.431 135.708 274.448 136.325C273.481 136.942 272.365 137.25 271.098 137.25ZM266.373 130.55C266.373 131.517 266.581 132.4 266.998 133.2C267.431 133.983 268.006 134.608 268.723 135.075C269.44 135.525 270.231 135.75 271.098 135.75C271.965 135.75 272.756 135.517 273.473 135.05C274.19 134.583 274.765 133.95 275.198 133.15C275.631 132.35 275.848 131.467 275.848 130.5C275.848 129.533 275.631 128.65 275.198 127.85C274.765 127.05 274.19 126.417 273.473 125.95C272.756 125.483 271.965 125.25 271.098 125.25C270.248 125.25 269.465 125.492 268.748 125.975C268.031 126.442 267.456 127.075 267.023 127.875C266.59 128.675 266.373 129.567 266.373 130.55ZM280.291 131.625V123.975H281.991V131.325C281.991 134.275 282.999 135.75 285.016 135.75C286.016 135.75 286.949 135.425 287.816 134.775C288.699 134.125 289.333 133.258 289.716 132.175V123.975H291.416V134.95C291.416 135.4 291.616 135.633 292.016 135.65V137C291.816 137.033 291.658 137.05 291.541 137.05C291.441 137.05 291.333 137.05 291.216 137.05C290.866 137.017 290.566 136.883 290.316 136.65C290.083 136.417 289.966 136.133 289.966 135.8L289.916 134.05C289.349 135.067 288.574 135.858 287.591 136.425C286.624 136.975 285.574 137.25 284.441 137.25C281.674 137.25 280.291 135.375 280.291 131.625ZM301.76 125.475C300.626 125.508 299.626 125.825 298.76 126.425C297.91 127.025 297.31 127.85 296.96 128.9V137H295.26V123.975H296.86V127.1C297.31 126.183 297.901 125.442 298.635 124.875C299.385 124.308 300.176 123.992 301.01 123.925C301.176 123.908 301.318 123.9 301.435 123.9C301.551 123.9 301.66 123.908 301.76 123.925V125.475ZM310.436 125.325H308.636V123.975H310.436V123.625C310.436 122.808 310.594 122.008 310.911 121.225C311.244 120.442 311.744 119.792 312.411 119.275C313.094 118.758 313.969 118.5 315.036 118.5C315.952 118.5 316.736 118.642 317.386 118.925C318.052 119.208 318.527 119.458 318.811 119.675L318.036 120.9C317.752 120.65 317.352 120.442 316.836 120.275C316.319 120.092 315.752 120 315.136 120C314.419 120 313.844 120.183 313.411 120.55C312.977 120.9 312.652 121.35 312.436 121.9C312.236 122.45 312.136 123.008 312.136 123.575V123.975H318.661V137H316.961V125.325H312.136V137H310.436V125.325ZM328.908 125.475C327.775 125.508 326.775 125.825 325.908 126.425C325.058 127.025 324.458 127.85 324.108 128.9V137H322.408V123.975H324.008V127.1C324.458 126.183 325.05 125.442 325.783 124.875C326.533 124.308 327.325 123.992 328.158 123.925C328.325 123.908 328.467 123.9 328.583 123.9C328.7 123.9 328.808 123.908 328.908 123.925V125.475ZM335.448 137.25C334.381 137.25 333.39 137.075 332.473 136.725C331.573 136.358 330.781 135.825 330.098 135.125L330.798 133.925C331.531 134.608 332.265 135.108 332.998 135.425C333.748 135.725 334.54 135.875 335.373 135.875C336.373 135.875 337.19 135.675 337.823 135.275C338.473 134.858 338.798 134.267 338.798 133.5C338.798 132.983 338.64 132.592 338.323 132.325C338.023 132.042 337.581 131.817 336.998 131.65C336.431 131.483 335.748 131.292 334.948 131.075C334.048 130.825 333.29 130.567 332.673 130.3C332.073 130.017 331.615 129.667 331.298 129.25C330.998 128.817 330.848 128.258 330.848 127.575C330.848 126.742 331.056 126.042 331.473 125.475C331.906 124.908 332.49 124.483 333.223 124.2C333.973 123.9 334.806 123.75 335.723 123.75C336.723 123.75 337.606 123.908 338.373 124.225C339.14 124.542 339.765 124.983 340.248 125.55L339.423 126.7C338.973 126.167 338.415 125.775 337.748 125.525C337.098 125.258 336.39 125.125 335.623 125.125C335.09 125.125 334.581 125.2 334.098 125.35C333.615 125.483 333.215 125.717 332.898 126.05C332.598 126.367 332.448 126.808 332.448 127.375C332.448 128.075 332.706 128.558 333.223 128.825C333.74 129.092 334.523 129.375 335.573 129.675C336.556 129.942 337.415 130.208 338.148 130.475C338.881 130.742 339.448 131.1 339.848 131.55C340.248 131.983 340.448 132.592 340.448 133.375C340.448 134.592 339.99 135.542 339.073 136.225C338.156 136.908 336.948 137.25 335.448 137.25ZM349.508 136.375C349.308 136.458 348.941 136.608 348.408 136.825C347.874 137.042 347.258 137.15 346.558 137.15C345.824 137.15 345.183 136.942 344.633 136.525C344.083 136.108 343.808 135.483 343.808 134.65V125.325H342.008V123.975H343.808V119.575H345.508V123.975H348.508V125.325H345.508V134.175C345.541 134.658 345.708 135.017 346.008 135.25C346.324 135.467 346.683 135.575 347.083 135.575C347.549 135.575 347.966 135.5 348.333 135.35C348.716 135.183 348.958 135.067 349.058 135L349.508 136.375ZM364.654 137.25C363.571 137.25 362.596 136.967 361.729 136.4C360.879 135.833 360.204 135.133 359.704 134.3V142.325H358.004V123.975H359.529V126.5C360.046 125.683 360.729 125.025 361.579 124.525C362.446 124.008 363.379 123.75 364.379 123.75C365.279 123.75 366.104 123.942 366.854 124.325C367.604 124.692 368.254 125.192 368.804 125.825C369.371 126.458 369.804 127.183 370.104 128C370.404 128.8 370.554 129.633 370.554 130.5C370.554 131.717 370.304 132.842 369.804 133.875C369.321 134.892 368.629 135.708 367.729 136.325C366.846 136.942 365.821 137.25 364.654 137.25ZM364.179 135.75C365.129 135.75 365.946 135.5 366.629 135C367.329 134.483 367.871 133.825 368.254 133.025C368.637 132.225 368.829 131.383 368.829 130.5C368.829 129.567 368.612 128.7 368.179 127.9C367.746 127.1 367.162 126.458 366.429 125.975C365.712 125.492 364.896 125.25 363.979 125.25C363.412 125.25 362.812 125.4 362.179 125.7C361.562 125.983 361.012 126.375 360.529 126.875C360.062 127.358 359.787 127.892 359.704 128.475V132.475C360.087 133.392 360.687 134.167 361.504 134.8C362.321 135.433 363.212 135.75 364.179 135.75ZM379.934 125.475C378.8 125.508 377.8 125.825 376.934 126.425C376.084 127.025 375.484 127.85 375.134 128.9V137H373.434V123.975H375.034V127.1C375.484 126.183 376.075 125.442 376.809 124.875C377.559 124.308 378.35 123.992 379.184 123.925C379.35 123.908 379.492 123.9 379.609 123.9C379.725 123.9 379.834 123.908 379.934 123.925V125.475ZM382.198 121.25V118.75H383.898V121.25H382.198ZM382.198 137V123.975H383.898V137H382.198ZM393.193 137.25C391.943 137.25 390.826 136.942 389.843 136.325C388.876 135.708 388.118 134.892 387.568 133.875C387.018 132.842 386.743 131.725 386.743 130.525C386.743 129.308 387.018 128.192 387.568 127.175C388.134 126.142 388.901 125.317 389.868 124.7C390.851 124.067 391.959 123.75 393.193 123.75C394.443 123.75 395.551 124.067 396.518 124.7C397.501 125.317 398.268 126.142 398.818 127.175C399.384 128.192 399.668 129.308 399.668 130.525C399.668 131.725 399.393 132.842 398.843 133.875C398.293 134.892 397.526 135.708 396.543 136.325C395.576 136.942 394.459 137.25 393.193 137.25ZM388.468 130.55C388.468 131.517 388.676 132.4 389.093 133.2C389.526 133.983 390.101 134.608 390.818 135.075C391.534 135.525 392.326 135.75 393.193 135.75C394.059 135.75 394.851 135.517 395.568 135.05C396.284 134.583 396.859 133.95 397.293 133.15C397.726 132.35 397.943 131.467 397.943 130.5C397.943 129.533 397.726 128.65 397.293 127.85C396.859 127.05 396.284 126.417 395.568 125.95C394.851 125.483 394.059 125.25 393.193 125.25C392.343 125.25 391.559 125.492 390.843 125.975C390.126 126.442 389.551 127.075 389.118 127.875C388.684 128.675 388.468 129.567 388.468 130.55ZM409.011 125.475C407.877 125.508 406.877 125.825 406.011 126.425C405.161 127.025 404.561 127.85 404.211 128.9V137H402.511V123.975H404.111V127.1C404.561 126.183 405.152 125.442 405.886 124.875C406.636 124.308 407.427 123.992 408.261 123.925C408.427 123.908 408.569 123.9 408.686 123.9C408.802 123.9 408.911 123.908 409.011 123.925V125.475ZM411.275 121.25V118.75H412.975V121.25H411.275ZM411.275 137V123.975H412.975V137H411.275ZM422.97 136.375C422.77 136.458 422.403 136.608 421.87 136.825C421.336 137.042 420.72 137.15 420.02 137.15C419.286 137.15 418.645 136.942 418.095 136.525C417.545 136.108 417.27 135.483 417.27 134.65V125.325H415.47V123.975H417.27V119.575H418.97V123.975H421.97V125.325H418.97V134.175C419.003 134.658 419.17 135.017 419.47 135.25C419.786 135.467 420.145 135.575 420.545 135.575C421.011 135.575 421.428 135.5 421.795 135.35C422.178 135.183 422.42 135.067 422.52 135L422.97 136.375ZM425.844 141C426.077 141.017 426.302 141.025 426.519 141.025C426.735 141.042 426.894 141.033 426.994 141C427.194 140.983 427.377 140.867 427.544 140.65C427.727 140.45 427.944 140.067 428.194 139.5C428.46 138.95 428.819 138.117 429.269 137L423.594 123.975H425.394L430.169 135.25L434.569 123.975H436.269L429.519 140.775C429.335 141.258 429.027 141.675 428.594 142.025C428.16 142.375 427.585 142.558 426.869 142.575C426.719 142.592 426.56 142.592 426.394 142.575C426.227 142.575 426.044 142.558 425.844 142.525V141ZM436.489 137V134.55H437.964V137H436.489Z" fill="white"/>
</svg>
