<svg width="1920" height="100" viewBox="0 0 1920 100" fill="none" xmlns="http://www.w3.org/2000/svg">
<g filter="url(#filter0_d_301_658)">
<rect width="1920" height="80" fill="url(#paint0_radial_301_658)" shape-rendering="crispEdges"/>
</g>
<path d="M981.864 34.64V46H979.24V41.344H974.712V46H972.088V34.64H974.712V39.04H979.24V34.64H981.864ZM987.693 46.16C986.733 46.16 985.917 45.9573 985.245 45.552C984.583 45.1467 984.077 44.6133 983.725 43.952C983.373 43.2907 983.197 42.576 983.197 41.808C983.197 41.0293 983.373 40.3093 983.725 39.648C984.077 38.9867 984.589 38.4533 985.261 38.048C985.933 37.6427 986.743 37.44 987.693 37.44C988.642 37.44 989.453 37.6427 990.125 38.048C990.797 38.4533 991.309 38.9867 991.661 39.648C992.013 40.3093 992.189 41.0293 992.189 41.808C992.189 42.576 992.013 43.2907 991.661 43.952C991.309 44.6133 990.797 45.1467 990.125 45.552C989.453 45.9573 988.642 46.16 987.693 46.16ZM985.821 41.808C985.821 42.4587 985.997 42.9867 986.349 43.392C986.711 43.7973 987.159 44 987.693 44C988.215 44 988.653 43.7973 989.005 43.392C989.367 42.9867 989.549 42.4587 989.549 41.808C989.549 41.1573 989.367 40.6293 989.005 40.224C988.653 39.8187 988.215 39.616 987.693 39.616C987.159 39.616 986.711 39.8187 986.349 40.224C985.997 40.6293 985.821 41.1573 985.821 41.808ZM1006.74 46H1004.18V41.28C1004.18 40.736 1004.08 40.336 1003.87 40.08C1003.67 39.824 1003.41 39.696 1003.09 39.696C1002.75 39.696 1002.41 39.8347 1002.08 40.112C1001.75 40.3893 1001.52 40.7467 1001.38 41.184V46H998.818V41.28C998.818 40.7253 998.717 40.3253 998.514 40.08C998.311 39.824 998.05 39.696 997.73 39.696C997.389 39.696 997.053 39.8347 996.722 40.112C996.402 40.3893 996.167 40.7467 996.018 41.184V46H993.458V37.6H995.762V39.008C996.071 38.5067 996.493 38.1227 997.026 37.856C997.559 37.5787 998.173 37.44 998.866 37.44C999.559 37.44 1000.09 37.6053 1000.47 37.936C1000.84 38.256 1001.08 38.6347 1001.19 39.072C1001.51 38.56 1001.93 38.16 1002.45 37.872C1002.98 37.584 1003.58 37.44 1004.24 37.44C1004.78 37.44 1005.2 37.5413 1005.52 37.744C1005.85 37.936 1006.1 38.192 1006.27 38.512C1006.46 38.832 1006.58 39.1787 1006.64 39.552C1006.71 39.9147 1006.74 40.272 1006.74 40.624V46ZM1012.43 46.16C1011.48 46.16 1010.67 45.9627 1010 45.568C1009.32 45.1733 1008.81 44.6507 1008.44 44C1008.09 43.3493 1007.92 42.6453 1007.92 41.888C1007.92 41.0773 1008.09 40.336 1008.44 39.664C1008.8 38.992 1009.31 38.4533 1009.98 38.048C1010.65 37.6427 1011.47 37.44 1012.43 37.44C1013.38 37.44 1014.19 37.6427 1014.86 38.048C1015.53 38.4533 1016.04 38.9867 1016.38 39.648C1016.73 40.3093 1016.91 41.0187 1016.91 41.776C1016.91 42.0853 1016.89 42.3573 1016.84 42.592H1010.64C1010.68 43.1573 1010.88 43.5893 1011.24 43.888C1011.62 44.176 1012.04 44.32 1012.51 44.32C1012.88 44.32 1013.24 44.2293 1013.58 44.048C1013.92 43.8667 1014.16 43.6213 1014.28 43.312L1016.46 43.92C1016.13 44.5813 1015.61 45.12 1014.91 45.536C1014.21 45.952 1013.39 46.16 1012.43 46.16ZM1010.57 41.024H1014.22C1014.17 40.4907 1013.97 40.0693 1013.63 39.76C1013.3 39.44 1012.89 39.28 1012.4 39.28C1011.9 39.28 1011.49 39.44 1011.15 39.76C1010.82 40.08 1010.62 40.5013 1010.57 41.024Z" fill="#F95C19"/>
<path d="M1057.03 46.08C1056.2 46.08 1055.44 45.92 1054.76 45.6C1054.09 45.28 1053.51 44.848 1053.02 44.304C1052.54 43.7493 1052.16 43.1307 1051.9 42.448C1051.63 41.7547 1051.5 41.0453 1051.5 40.32C1051.5 39.5627 1051.63 38.8427 1051.91 38.16C1052.19 37.4667 1052.58 36.8533 1053.08 36.32C1053.58 35.776 1054.17 35.3493 1054.84 35.04C1055.52 34.72 1056.27 34.56 1057.08 34.56C1057.9 34.56 1058.65 34.7253 1059.32 35.056C1060 35.3867 1060.58 35.8293 1061.06 36.384C1061.55 36.9387 1061.93 37.5627 1062.18 38.256C1062.45 38.9387 1062.58 39.6373 1062.58 40.352C1062.58 41.0987 1062.45 41.8187 1062.17 42.512C1061.89 43.1947 1061.5 43.808 1061 44.352C1060.51 44.8853 1059.92 45.3067 1059.24 45.616C1058.57 45.9253 1057.83 46.08 1057.03 46.08ZM1053.74 40.32C1053.74 40.9813 1053.86 41.6 1054.12 42.176C1054.39 42.752 1054.77 43.2213 1055.26 43.584C1055.76 43.9467 1056.35 44.128 1057.05 44.128C1057.76 44.128 1058.37 43.9413 1058.86 43.568C1059.35 43.1947 1059.72 42.7147 1059.98 42.128C1060.23 41.5413 1060.36 40.9387 1060.36 40.32C1060.36 39.6587 1060.23 39.04 1059.96 38.464C1059.69 37.888 1059.31 37.424 1058.81 37.072C1058.32 36.7093 1057.73 36.528 1057.05 36.528C1056.33 36.528 1055.73 36.7147 1055.24 37.088C1054.75 37.4613 1054.38 37.9413 1054.12 38.528C1053.86 39.104 1053.74 39.7013 1053.74 40.32ZM1063.99 42.864V37.616H1066.13V42.4C1066.13 43.6907 1066.6 44.336 1067.53 44.336C1067.94 44.336 1068.34 44.2133 1068.73 43.968C1069.12 43.712 1069.44 43.328 1069.69 42.816V37.616H1071.83V43.6C1071.83 43.8347 1071.87 44 1071.94 44.096C1072.02 44.1813 1072.15 44.2347 1072.34 44.256V46C1072.13 46.0427 1071.95 46.0693 1071.8 46.08C1071.66 46.0907 1071.53 46.096 1071.41 46.096C1071.03 46.096 1070.72 46.0107 1070.47 45.84C1070.24 45.6587 1070.1 45.4133 1070.05 45.104L1070.01 44.432C1069.63 45.008 1069.15 45.44 1068.57 45.728C1067.98 46.016 1067.33 46.16 1066.63 46.16C1065.77 46.16 1065.11 45.8827 1064.66 45.328C1064.21 44.7627 1063.99 43.9413 1063.99 42.864ZM1078.95 39.472C1078.3 39.472 1077.72 39.6 1077.21 39.856C1076.7 40.1013 1076.33 40.4587 1076.1 40.928V46H1073.96V37.616H1075.93V39.408C1076.22 38.832 1076.59 38.3787 1077.05 38.048C1077.52 37.7173 1078.01 37.536 1078.52 37.504C1078.74 37.504 1078.89 37.5093 1078.95 37.52V39.472ZM1086.72 46.16C1086.01 46.16 1085.32 46.0427 1084.67 45.808C1084.02 45.5733 1083.46 45.2267 1082.99 44.768L1083.76 43.376C1084.26 43.7813 1084.75 44.08 1085.23 44.272C1085.71 44.464 1086.18 44.56 1086.64 44.56C1087.06 44.56 1087.39 44.4853 1087.63 44.336C1087.89 44.1867 1088.02 43.9627 1088.02 43.664C1088.02 43.3547 1087.86 43.1467 1087.55 43.04C1087.24 42.9227 1086.81 42.7787 1086.26 42.608C1085.64 42.416 1085.12 42.2187 1084.7 42.016C1084.29 41.8133 1083.97 41.568 1083.76 41.28C1083.56 40.992 1083.46 40.6187 1083.46 40.16C1083.46 39.3387 1083.77 38.6827 1084.38 38.192C1085 37.7013 1085.82 37.456 1086.85 37.456C1087.45 37.456 1088.01 37.552 1088.54 37.744C1089.08 37.9253 1089.56 38.224 1090 38.64L1089.14 40C1088.31 39.36 1087.52 39.04 1086.75 39.04C1086.41 39.04 1086.11 39.104 1085.84 39.232C1085.58 39.36 1085.46 39.584 1085.46 39.904C1085.46 40.2027 1085.58 40.416 1085.82 40.544C1086.08 40.672 1086.46 40.8107 1086.98 40.96C1087.64 41.1627 1088.2 41.36 1088.66 41.552C1089.13 41.744 1089.48 41.9893 1089.71 42.288C1089.96 42.5867 1090.08 42.992 1090.08 43.504C1090.08 44.336 1089.78 44.9867 1089.17 45.456C1088.56 45.9253 1087.74 46.16 1086.72 46.16ZM1095.43 46.16C1094.52 46.16 1093.74 45.9627 1093.07 45.568C1092.42 45.1733 1091.92 44.6507 1091.55 44C1091.19 43.3387 1091.01 42.624 1091.01 41.856C1091.01 41.0667 1091.19 40.3413 1091.54 39.68C1091.9 39.008 1092.41 38.4747 1093.07 38.08C1093.74 37.6747 1094.53 37.472 1095.44 37.472C1096.36 37.472 1097.14 37.6747 1097.79 38.08C1098.45 38.4747 1098.94 39.0027 1099.28 39.664C1099.63 40.3147 1099.81 41.0187 1099.81 41.776C1099.81 42.0533 1099.79 42.2933 1099.76 42.496H1093.28C1093.34 43.1467 1093.58 43.6587 1094 44.032C1094.44 44.4053 1094.94 44.592 1095.51 44.592C1095.93 44.592 1096.33 44.4907 1096.71 44.288C1097.09 44.0747 1097.35 43.7973 1097.49 43.456L1099.33 43.968C1099.02 44.608 1098.53 45.136 1097.84 45.552C1097.16 45.9573 1096.35 46.16 1095.43 46.16ZM1093.23 41.136H1097.62C1097.55 40.5067 1097.31 40 1096.9 39.616C1096.49 39.2213 1096 39.024 1095.41 39.024C1094.83 39.024 1094.34 39.2213 1093.92 39.616C1093.52 40 1093.29 40.5067 1093.23 41.136ZM1106.11 39.472C1105.46 39.472 1104.88 39.6 1104.36 39.856C1103.85 40.1013 1103.48 40.4587 1103.26 40.928V46H1101.12V37.616H1103.08V39.408C1103.37 38.832 1103.75 38.3787 1104.2 38.048C1104.67 37.7173 1105.16 37.536 1105.68 37.504C1105.9 37.504 1106.04 37.5093 1106.11 37.52V39.472ZM1109.56 46L1106.47 37.616H1108.7L1110.81 44.048L1112.94 37.616H1114.97L1111.9 46H1109.56ZM1116.1 36.448V34.32H1118.25V36.448H1116.1ZM1116.1 46V37.616H1118.25V46H1116.1ZM1124.08 46.16C1123.18 46.16 1122.39 45.9573 1121.73 45.552C1121.07 45.1467 1120.56 44.6133 1120.2 43.952C1119.83 43.2907 1119.65 42.576 1119.65 41.808C1119.65 41.0293 1119.83 40.3093 1120.18 39.648C1120.54 38.9867 1121.05 38.4587 1121.72 38.064C1122.38 37.6693 1123.16 37.472 1124.07 37.472C1124.98 37.472 1125.76 37.6693 1126.4 38.064C1127.05 38.4587 1127.54 38.976 1127.86 39.616L1125.76 40.256C1125.39 39.616 1124.82 39.296 1124.05 39.296C1123.64 39.296 1123.26 39.4027 1122.93 39.616C1122.6 39.8187 1122.34 40.112 1122.15 40.496C1121.96 40.8693 1121.86 41.3067 1121.86 41.808C1121.86 42.2987 1121.96 42.736 1122.15 43.12C1122.35 43.4933 1122.62 43.792 1122.95 44.016C1123.28 44.2293 1123.65 44.336 1124.05 44.336C1124.44 44.336 1124.79 44.2453 1125.11 44.064C1125.44 43.872 1125.67 43.632 1125.8 43.344L1127.89 43.984C1127.6 44.6133 1127.12 45.136 1126.45 45.552C1125.79 45.9573 1125 46.16 1124.08 46.16ZM1133.02 46.16C1132.11 46.16 1131.33 45.9627 1130.67 45.568C1130.02 45.1733 1129.51 44.6507 1129.15 44C1128.79 43.3387 1128.6 42.624 1128.6 41.856C1128.6 41.0667 1128.78 40.3413 1129.13 39.68C1129.49 39.008 1130.01 38.4747 1130.67 38.08C1131.33 37.6747 1132.12 37.472 1133.04 37.472C1133.95 37.472 1134.74 37.6747 1135.39 38.08C1136.04 38.4747 1136.53 39.0027 1136.88 39.664C1137.23 40.3147 1137.4 41.0187 1137.4 41.776C1137.4 42.0533 1137.39 42.2933 1137.36 42.496H1130.88C1130.93 43.1467 1131.17 43.6587 1131.6 44.032C1132.03 44.4053 1132.53 44.592 1133.1 44.592C1133.53 44.592 1133.93 44.4907 1134.3 44.288C1134.68 44.0747 1134.95 43.7973 1135.08 43.456L1136.92 43.968C1136.61 44.608 1136.12 45.136 1135.44 45.552C1134.75 45.9573 1133.95 46.16 1133.02 46.16ZM1130.83 41.136H1135.21C1135.15 40.5067 1134.91 40 1134.49 39.616C1134.09 39.2213 1133.59 39.024 1133 39.024C1132.43 39.024 1131.93 39.2213 1131.52 39.616C1131.11 40 1130.88 40.5067 1130.83 41.136ZM1141.8 46.16C1141.08 46.16 1140.4 46.0427 1139.75 45.808C1139.1 45.5733 1138.54 45.2267 1138.07 44.768L1138.84 43.376C1139.34 43.7813 1139.83 44.08 1140.31 44.272C1140.79 44.464 1141.26 44.56 1141.72 44.56C1142.13 44.56 1142.47 44.4853 1142.71 44.336C1142.97 44.1867 1143.09 43.9627 1143.09 43.664C1143.09 43.3547 1142.94 43.1467 1142.63 43.04C1142.32 42.9227 1141.89 42.7787 1141.33 42.608C1140.72 42.416 1140.2 42.2187 1139.78 42.016C1139.37 41.8133 1139.05 41.568 1138.84 41.28C1138.64 40.992 1138.53 40.6187 1138.53 40.16C1138.53 39.3387 1138.84 38.6827 1139.46 38.192C1140.08 37.7013 1140.9 37.456 1141.93 37.456C1142.52 37.456 1143.09 37.552 1143.62 37.744C1144.16 37.9253 1144.64 38.224 1145.08 38.64L1144.21 40C1143.39 39.36 1142.6 39.04 1141.83 39.04C1141.49 39.04 1141.19 39.104 1140.92 39.232C1140.66 39.36 1140.53 39.584 1140.53 39.904C1140.53 40.2027 1140.66 40.416 1140.9 40.544C1141.16 40.672 1141.54 40.8107 1142.05 40.96C1142.72 41.1627 1143.28 41.36 1143.73 41.552C1144.2 41.744 1144.56 41.9893 1144.79 42.288C1145.04 42.5867 1145.16 42.992 1145.16 43.504C1145.16 44.336 1144.85 44.9867 1144.25 45.456C1143.64 45.9253 1142.82 46.16 1141.8 46.16Z" fill="#817382"/>
<path d="M1175.27 34.64H1177.51L1181.69 46H1179.42L1178.36 43.168H1174.39L1173.35 46H1171.08L1175.27 34.64ZM1177.96 41.616L1176.39 36.928L1174.76 41.616H1177.96ZM1187.49 46.16C1186.85 46.16 1186.28 46.016 1185.78 45.728C1185.28 45.44 1184.89 45.0453 1184.6 44.544V46H1182.73V34.32H1184.87V39.088C1185.17 38.5867 1185.56 38.192 1186.04 37.904C1186.53 37.616 1187.1 37.472 1187.75 37.472C1188.48 37.472 1189.11 37.6747 1189.65 38.08C1190.21 38.4747 1190.64 39.0027 1190.95 39.664C1191.26 40.3253 1191.41 41.0507 1191.41 41.84C1191.41 42.6507 1191.24 43.3813 1190.9 44.032C1190.56 44.6827 1190.09 45.2 1189.49 45.584C1188.91 45.968 1188.24 46.16 1187.49 46.16ZM1186.9 44.336C1187.36 44.336 1187.76 44.224 1188.1 44C1188.45 43.776 1188.73 43.4773 1188.92 43.104C1189.12 42.72 1189.22 42.304 1189.22 41.856C1189.22 41.3973 1189.13 40.976 1188.93 40.592C1188.75 40.1973 1188.5 39.8827 1188.17 39.648C1187.84 39.4133 1187.46 39.296 1187.03 39.296C1186.56 39.296 1186.13 39.456 1185.73 39.776C1185.35 40.0853 1185.06 40.4693 1184.87 40.928V42.928C1185.01 43.344 1185.28 43.6853 1185.69 43.952C1186.09 44.208 1186.5 44.336 1186.9 44.336ZM1196.74 46.16C1195.82 46.16 1195.03 45.9627 1194.37 45.568C1193.72 45.1627 1193.22 44.6293 1192.87 43.968C1192.51 43.3067 1192.34 42.592 1192.34 41.824C1192.34 41.0453 1192.51 40.3253 1192.87 39.664C1193.23 39.0027 1193.74 38.4747 1194.39 38.08C1195.05 37.6747 1195.83 37.472 1196.74 37.472C1197.65 37.472 1198.42 37.6747 1199.07 38.08C1199.74 38.4747 1200.24 39.0027 1200.59 39.664C1200.95 40.3253 1201.12 41.0453 1201.12 41.824C1201.12 42.592 1200.95 43.3067 1200.59 43.968C1200.24 44.6293 1199.74 45.1627 1199.07 45.568C1198.42 45.9627 1197.65 46.16 1196.74 46.16ZM1194.55 41.824C1194.55 42.3147 1194.64 42.752 1194.83 43.136C1195.03 43.5093 1195.29 43.8027 1195.62 44.016C1195.95 44.2293 1196.32 44.336 1196.74 44.336C1197.14 44.336 1197.51 44.2293 1197.84 44.016C1198.17 43.792 1198.43 43.4933 1198.63 43.12C1198.83 42.736 1198.93 42.2987 1198.93 41.808C1198.93 41.328 1198.83 40.9013 1198.63 40.528C1198.43 40.144 1198.17 39.8453 1197.84 39.632C1197.51 39.408 1197.14 39.296 1196.74 39.296C1196.32 39.296 1195.95 39.408 1195.62 39.632C1195.29 39.8453 1195.03 40.144 1194.83 40.528C1194.64 40.9013 1194.55 41.3333 1194.55 41.824ZM1202.49 42.864V37.616H1204.63V42.4C1204.63 43.6907 1205.1 44.336 1206.03 44.336C1206.44 44.336 1206.84 44.2133 1207.23 43.968C1207.62 43.712 1207.94 43.328 1208.19 42.816V37.616H1210.33V43.6C1210.33 43.8347 1210.37 44 1210.44 44.096C1210.52 44.1813 1210.65 44.2347 1210.84 44.256V46C1210.63 46.0427 1210.45 46.0693 1210.3 46.08C1210.16 46.0907 1210.03 46.096 1209.91 46.096C1209.53 46.096 1209.22 46.0107 1208.97 45.84C1208.74 45.6587 1208.6 45.4133 1208.55 45.104L1208.51 44.432C1208.13 45.008 1207.65 45.44 1207.07 45.728C1206.48 46.016 1205.83 46.16 1205.13 46.16C1204.27 46.16 1203.61 45.8827 1203.16 45.328C1202.71 44.7627 1202.49 43.9413 1202.49 42.864ZM1217.45 45.568C1217.17 45.696 1216.81 45.824 1216.38 45.952C1215.97 46.08 1215.53 46.144 1215.09 46.144C1214.69 46.144 1214.33 46.0747 1214 45.936C1213.67 45.7973 1213.4 45.5787 1213.2 45.28C1213.01 44.9707 1212.91 44.5707 1212.91 44.08V39.264H1211.81V37.616H1212.91V34.896H1215.05V37.616H1216.81V39.264H1215.05V43.36C1215.05 43.648 1215.13 43.856 1215.28 43.984C1215.44 44.112 1215.63 44.176 1215.85 44.176C1216.08 44.176 1216.3 44.1387 1216.51 44.064C1216.72 43.9893 1216.89 43.9253 1217.02 43.872L1217.45 45.568ZM1227.44 46.08C1226.53 46.08 1225.76 45.9307 1225.12 45.632C1224.49 45.3227 1223.98 44.9013 1223.58 44.368C1223.2 43.8347 1222.91 43.232 1222.73 42.56C1222.55 41.8773 1222.46 41.168 1222.46 40.432V34.64H1224.67V40.432C1224.67 41.0613 1224.75 41.6587 1224.93 42.224C1225.1 42.7893 1225.38 43.248 1225.79 43.6C1226.19 43.952 1226.74 44.128 1227.42 44.128C1228.13 44.128 1228.68 43.952 1229.09 43.6C1229.49 43.2373 1229.78 42.7733 1229.95 42.208C1230.12 41.6427 1230.21 41.0507 1230.21 40.432V34.64H1232.4V40.432C1232.4 41.2107 1232.3 41.9413 1232.11 42.624C1231.93 43.3067 1231.63 43.9093 1231.23 44.432C1230.83 44.944 1230.32 45.3493 1229.69 45.648C1229.06 45.936 1228.31 46.08 1227.44 46.08ZM1237.3 46.16C1236.58 46.16 1235.9 46.0427 1235.25 45.808C1234.6 45.5733 1234.04 45.2267 1233.57 44.768L1234.34 43.376C1234.84 43.7813 1235.33 44.08 1235.81 44.272C1236.29 44.464 1236.76 44.56 1237.22 44.56C1237.63 44.56 1237.97 44.4853 1238.21 44.336C1238.47 44.1867 1238.59 43.9627 1238.59 43.664C1238.59 43.3547 1238.44 43.1467 1238.13 43.04C1237.82 42.9227 1237.39 42.7787 1236.83 42.608C1236.22 42.416 1235.7 42.2187 1235.28 42.016C1234.87 41.8133 1234.55 41.568 1234.34 41.28C1234.14 40.992 1234.03 40.6187 1234.03 40.16C1234.03 39.3387 1234.34 38.6827 1234.96 38.192C1235.58 37.7013 1236.4 37.456 1237.43 37.456C1238.02 37.456 1238.59 37.552 1239.12 37.744C1239.66 37.9253 1240.14 38.224 1240.58 38.64L1239.71 40C1238.89 39.36 1238.1 39.04 1237.33 39.04C1236.99 39.04 1236.69 39.104 1236.42 39.232C1236.16 39.36 1236.03 39.584 1236.03 39.904C1236.03 40.2027 1236.16 40.416 1236.4 40.544C1236.66 40.672 1237.04 40.8107 1237.55 40.96C1238.22 41.1627 1238.78 41.36 1239.23 41.552C1239.7 41.744 1240.06 41.9893 1240.29 42.288C1240.54 42.5867 1240.66 42.992 1240.66 43.504C1240.66 44.336 1240.35 44.9867 1239.75 45.456C1239.14 45.9253 1238.32 46.16 1237.3 46.16Z" fill="#817382"/>
<path d="M1277.07 34.672H1279.12L1280.42 38.432L1281.73 34.672H1283.76L1281.81 39.84L1283.25 43.456L1286.46 34.64H1288.86L1284.32 46H1282.42L1280.42 41.232L1278.43 46H1276.53L1272 34.64H1274.37L1277.6 43.456L1279.01 39.84L1277.07 34.672ZM1297.61 46H1295.47V41.296C1295.47 40.6453 1295.34 40.16 1295.08 39.84C1294.84 39.52 1294.5 39.36 1294.06 39.36C1293.79 39.36 1293.52 39.4347 1293.23 39.584C1292.95 39.7333 1292.69 39.9413 1292.46 40.208C1292.24 40.464 1292.07 40.7627 1291.96 41.104V46H1289.82V34.32H1291.96V39.168C1292.27 38.6347 1292.69 38.2187 1293.23 37.92C1293.76 37.6213 1294.34 37.472 1294.97 37.472C1295.69 37.472 1296.24 37.632 1296.62 37.952C1297 38.272 1297.27 38.6827 1297.4 39.184C1297.54 39.6853 1297.61 40.2133 1297.61 40.768V46ZM1298.9 43.52C1298.9 42.976 1299.05 42.5013 1299.35 42.096C1299.66 41.68 1300.08 41.36 1300.63 41.136C1301.17 40.912 1301.8 40.8 1302.5 40.8C1302.85 40.8 1303.21 40.832 1303.57 40.896C1303.93 40.9493 1304.25 41.0293 1304.52 41.136V40.688C1304.52 40.1547 1304.36 39.744 1304.04 39.456C1303.73 39.168 1303.26 39.024 1302.64 39.024C1302.19 39.024 1301.75 39.104 1301.33 39.264C1300.92 39.424 1300.48 39.6587 1300.02 39.968L1299.33 38.56C1299.89 38.1973 1300.45 37.9253 1301.03 37.744C1301.61 37.5627 1302.23 37.472 1302.87 37.472C1304.06 37.472 1304.99 37.7707 1305.65 38.368C1306.32 38.9653 1306.66 39.8187 1306.66 40.928V43.6C1306.66 43.8347 1306.7 44 1306.77 44.096C1306.85 44.1813 1306.98 44.2347 1307.17 44.256V46C1306.98 46.0427 1306.8 46.0693 1306.64 46.08C1306.49 46.1013 1306.37 46.112 1306.26 46.112C1305.83 46.112 1305.51 46.016 1305.28 45.824C1305.06 45.632 1304.93 45.3973 1304.88 45.12L1304.84 44.688C1304.46 45.168 1304 45.536 1303.46 45.792C1302.93 46.0373 1302.38 46.16 1301.81 46.16C1301.25 46.16 1300.75 46.048 1300.31 45.824C1299.87 45.5893 1299.52 45.2747 1299.27 44.88C1299.02 44.4747 1298.9 44.0213 1298.9 43.52ZM1304.12 43.952C1304.38 43.696 1304.52 43.4507 1304.52 43.216V42.368C1303.96 42.144 1303.4 42.032 1302.84 42.032C1302.27 42.032 1301.81 42.1547 1301.46 42.4C1301.11 42.6347 1300.93 42.9493 1300.93 43.344C1300.93 43.664 1301.06 43.952 1301.32 44.208C1301.57 44.464 1301.94 44.592 1302.42 44.592C1302.74 44.592 1303.05 44.5333 1303.35 44.416C1303.66 44.2987 1303.91 44.144 1304.12 43.952ZM1313.61 45.568C1313.32 45.696 1312.96 45.824 1312.54 45.952C1312.12 46.08 1311.69 46.144 1311.24 46.144C1310.85 46.144 1310.48 46.0747 1310.15 45.936C1309.82 45.7973 1309.56 45.5787 1309.35 45.28C1309.16 44.9707 1309.07 44.5707 1309.07 44.08V39.264H1307.96V37.616H1309.07V34.896H1311.21V37.616H1312.97V39.264H1311.21V43.36C1311.21 43.648 1311.28 43.856 1311.43 43.984C1311.59 44.112 1311.79 44.176 1312.01 44.176C1312.23 44.176 1312.45 44.1387 1312.67 44.064C1312.88 43.9893 1313.05 43.9253 1313.18 43.872L1313.61 45.568ZM1314.01 38.432L1314.38 36.48H1313.74V34.32H1315.88V36.512L1315.32 38.432H1314.01ZM1319.58 46.16C1318.86 46.16 1318.18 46.0427 1317.53 45.808C1316.88 45.5733 1316.32 45.2267 1315.85 44.768L1316.62 43.376C1317.12 43.7813 1317.61 44.08 1318.09 44.272C1318.57 44.464 1319.04 44.56 1319.5 44.56C1319.92 44.56 1320.25 44.4853 1320.49 44.336C1320.75 44.1867 1320.88 43.9627 1320.88 43.664C1320.88 43.3547 1320.72 43.1467 1320.41 43.04C1320.1 42.9227 1319.67 42.7787 1319.12 42.608C1318.5 42.416 1317.98 42.2187 1317.56 42.016C1317.15 41.8133 1316.83 41.568 1316.62 41.28C1316.42 40.992 1316.32 40.6187 1316.32 40.16C1316.32 39.3387 1316.62 38.6827 1317.24 38.192C1317.86 37.7013 1318.68 37.456 1319.71 37.456C1320.3 37.456 1320.87 37.552 1321.4 37.744C1321.94 37.9253 1322.42 38.224 1322.86 38.64L1322 40C1321.17 39.36 1320.38 39.04 1319.61 39.04C1319.27 39.04 1318.97 39.104 1318.7 39.232C1318.44 39.36 1318.32 39.584 1318.32 39.904C1318.32 40.2027 1318.44 40.416 1318.68 40.544C1318.94 40.672 1319.32 40.8107 1319.84 40.96C1320.5 41.1627 1321.06 41.36 1321.52 41.552C1321.98 41.744 1322.34 41.9893 1322.57 42.288C1322.82 42.5867 1322.94 42.992 1322.94 43.504C1322.94 44.336 1322.64 44.9867 1322.03 45.456C1321.42 45.9253 1320.6 46.16 1319.58 46.16ZM1336.03 46H1333.89V41.296C1333.89 40.624 1333.77 40.1333 1333.54 39.824C1333.3 39.5147 1332.98 39.36 1332.56 39.36C1332.27 39.36 1331.98 39.4347 1331.68 39.584C1331.39 39.7333 1331.13 39.9413 1330.9 40.208C1330.66 40.464 1330.49 40.7627 1330.39 41.104V46H1328.24V37.616H1330.18V39.168C1330.49 38.6453 1330.93 38.2347 1331.52 37.936C1332.11 37.6267 1332.77 37.472 1333.51 37.472C1334.03 37.472 1334.45 37.568 1334.79 37.76C1335.12 37.9413 1335.37 38.192 1335.55 38.512C1335.73 38.8213 1335.86 39.1733 1335.92 39.568C1336 39.9627 1336.03 40.3627 1336.03 40.768V46ZM1341.79 46.16C1340.88 46.16 1340.1 45.9627 1339.43 45.568C1338.78 45.1733 1338.28 44.6507 1337.91 44C1337.55 43.3387 1337.37 42.624 1337.37 41.856C1337.37 41.0667 1337.55 40.3413 1337.9 39.68C1338.26 39.008 1338.77 38.4747 1339.43 38.08C1340.1 37.6747 1340.88 37.472 1341.8 37.472C1342.72 37.472 1343.5 37.6747 1344.15 38.08C1344.8 38.4747 1345.3 39.0027 1345.64 39.664C1345.99 40.3147 1346.17 41.0187 1346.17 41.776C1346.17 42.0533 1346.15 42.2933 1346.12 42.496H1339.64C1339.7 43.1467 1339.94 43.6587 1340.36 44.032C1340.8 44.4053 1341.3 44.592 1341.87 44.592C1342.29 44.592 1342.69 44.4907 1343.07 44.288C1343.45 44.0747 1343.71 43.7973 1343.85 43.456L1345.69 43.968C1345.38 44.608 1344.88 45.136 1344.2 45.552C1343.52 45.9573 1342.71 46.16 1341.79 46.16ZM1339.59 41.136H1343.98C1343.91 40.5067 1343.67 40 1343.26 39.616C1342.85 39.2213 1342.36 39.024 1341.77 39.024C1341.19 39.024 1340.7 39.2213 1340.28 39.616C1339.88 40 1339.65 40.5067 1339.59 41.136ZM1357.64 37.616H1359.67L1356.17 46H1354.38L1352.97 42.4L1351.59 46H1349.79L1346.3 37.616H1348.31L1350.81 43.952L1351.79 41.216L1350.33 37.632H1352.11L1352.97 40.192L1353.85 37.632H1355.63L1354.17 41.216L1355.16 43.952L1357.64 37.616ZM1361.64 42.272C1361.64 41.7493 1361.72 41.28 1361.9 40.864C1362.07 40.448 1362.42 40.0853 1362.95 39.776C1363.11 39.68 1363.31 39.568 1363.54 39.44C1363.78 39.312 1364.01 39.1627 1364.23 38.992C1364.46 38.8213 1364.64 38.624 1364.79 38.4C1364.95 38.176 1365.03 37.9147 1365.03 37.616C1365.03 37.1787 1364.88 36.8427 1364.57 36.608C1364.26 36.3627 1363.91 36.24 1363.51 36.24C1363.04 36.24 1362.65 36.384 1362.34 36.672C1362.03 36.9493 1361.79 37.232 1361.62 37.52L1360.23 36.56C1360.51 35.9093 1360.95 35.4027 1361.56 35.04C1362.18 34.6773 1362.85 34.496 1363.58 34.496C1364.12 34.496 1364.64 34.608 1365.14 34.832C1365.66 35.0453 1366.08 35.3867 1366.41 35.856C1366.74 36.3147 1366.9 36.912 1366.9 37.648C1366.9 38.3307 1366.75 38.8747 1366.44 39.28C1366.13 39.6747 1365.72 40.0267 1365.22 40.336C1364.94 40.5067 1364.65 40.672 1364.38 40.832C1364.1 40.992 1363.86 41.184 1363.67 41.408C1363.49 41.6213 1363.4 41.9093 1363.4 42.272H1361.64ZM1361.67 46V43.792H1363.45V46H1361.67Z" fill="#817382"/>
<path d="M334.5 42.76V35.44C334.5 33.28 335.58 32.2 337.74 32.2H342.36C344.52 32.2 345.6 33.28 345.6 35.44V42.76C345.6 44.6 344.813 45.6533 343.24 45.92L344.54 48.48L344.24 49H342.14L340.62 46H337.74C335.58 46 334.5 44.92 334.5 42.76ZM336.94 42.92C336.94 43.5067 337.233 43.8 337.82 43.8H342.28C342.867 43.8 343.16 43.5067 343.16 42.92V35.28C343.16 34.6933 342.867 34.4 342.28 34.4H337.82C337.233 34.4 336.94 34.6933 336.94 35.28V42.92ZM348.522 42.84V35.5H350.862V43.04C350.862 43.6533 351.168 43.96 351.782 43.96H355.102V35.5H357.422V46H351.682C349.575 46 348.522 44.9467 348.522 42.84ZM360.338 46V36.8C360.818 35.9333 361.738 35.5 363.098 35.5H365.198L366.238 36.28V37.52H363.498C363.111 37.52 362.838 37.62 362.678 37.82V46H360.338ZM368.21 33.72V31.36H370.63V33.72H368.21ZM368.25 46V35.5H370.59V46H368.25ZM376.163 46C374.056 46 373.003 44.96 373.003 42.88C373.003 40.8 374.056 39.76 376.163 39.76H379.263V38.46C379.263 37.8333 378.949 37.52 378.323 37.52H374.083V36.28L375.123 35.5H378.443C380.536 35.5 381.583 36.5533 381.583 38.66V46H376.163ZM375.343 43.04C375.343 43.6533 375.649 43.96 376.263 43.96H379.263V41.64H376.263C375.649 41.64 375.343 41.9467 375.343 42.56V43.04ZM384.42 46V36.8C384.9 35.9333 385.82 35.5 387.18 35.5H389.28L390.32 36.28V37.52H387.58C387.193 37.52 386.92 37.62 386.76 37.82V46H384.42ZM392.332 46V31.2H394.672V35.5H398.092C400.185 35.5 401.232 36.5533 401.232 38.66V42.84C401.232 44.9467 400.185 46 398.092 46H392.332ZM394.672 43.96H397.972C398.599 43.96 398.912 43.6533 398.912 43.04V38.46C398.912 37.8333 398.599 37.52 397.972 37.52H394.672V43.96ZM403.91 42.84V38.66C403.91 36.5533 404.964 35.5 407.07 35.5H409.87C411.964 35.5 413.01 36.5533 413.01 38.66V42.84C413.01 44.9467 411.964 46 409.87 46H407.07C404.964 46 403.91 44.9467 403.91 42.84ZM406.25 43.04C406.25 43.6533 406.557 43.96 407.17 43.96H409.75C410.377 43.96 410.69 43.6533 410.69 43.04V38.46C410.69 37.8333 410.377 37.52 409.75 37.52H407.17C406.557 37.52 406.25 37.8333 406.25 38.46V43.04ZM414.928 45.6L418.468 40.68L415.028 35.9L415.228 35.5H417.368L419.768 38.94L422.168 35.5H424.328L424.508 35.9L421.088 40.68L424.628 45.6L424.428 46H422.288L419.768 42.42L417.268 46H415.108L414.928 45.6Z" fill="#F95C19"/>
<path d="M312.577 51.0748L325.784 41.9561C326.588 41.4 327.037 40.5018 327.05 39.5846L327.199 30.6175C327.22 29.341 326.442 28.1924 325.256 27.7505L316.93 24.6459C316.08 24.3264 315.089 24.4243 314.285 24.9804L301.094 34.1233L312.643 38.5815L312.577 51.0748Z" fill="#F95C19"/>
<path d="M314.527 24.7424L301.242 33.9147C300.433 34.4741 299.982 35.3776 299.968 36.3002L299.819 45.3326C299.798 46.6091 300.576 47.7576 301.761 48.1996L310.148 51.3267C311.004 51.6482 312 51.5497 312.809 50.9903L326.077 41.7936L316.382 38.051C315.225 37.6044 314.465 36.4818 314.471 35.2304L314.527 24.7424Z" fill="#CA3E02"/>
<rect x="1420" y="15" width="49" height="49" rx="6" fill="#FFEDC9"/>
<path fill-rule="evenodd" clip-rule="evenodd" d="M1449.76 42.1883L1455.68 48.1062C1455.88 48.3143 1456 48.5966 1456 48.8909C1456 49.1851 1455.88 49.4673 1455.67 49.6753C1455.47 49.8833 1455.18 50.0001 1454.89 50C1454.6 49.9999 1454.31 49.8829 1454.11 49.6747L1448.19 43.7569C1446.42 45.1271 1444.19 45.7719 1441.97 45.5601C1439.74 45.3484 1437.68 44.2959 1436.2 42.6169C1434.72 40.9379 1433.93 38.7584 1434 36.5218C1434.08 34.2853 1435 32.1597 1436.58 30.5774C1438.16 28.9951 1440.29 28.0751 1442.52 28.0044C1444.76 27.9337 1446.94 28.7177 1448.62 30.1969C1450.3 31.6761 1451.35 33.7394 1451.56 35.967C1451.77 38.1946 1451.13 40.4192 1449.76 42.1883H1449.76ZM1442.8 43.3994C1444.55 43.3994 1446.23 42.704 1447.47 41.4663C1448.7 40.2286 1449.4 38.5499 1449.4 36.7995C1449.4 35.0491 1448.7 33.3704 1447.47 32.1327C1446.23 30.895 1444.55 30.1997 1442.8 30.1997C1441.05 30.1997 1439.37 30.895 1438.13 32.1327C1436.9 33.3704 1436.2 35.0491 1436.2 36.7995C1436.2 38.5499 1436.9 40.2286 1438.13 41.4663C1439.37 42.704 1441.05 43.3994 1442.8 43.3994Z" fill="#FFAF0F"/>
<rect x="1478" y="15" width="142" height="49" rx="5" fill="#FFE4D9"/>
<path d="M1499.44 41.64V34.56C1499.44 32.32 1500.56 31.2 1502.8 31.2H1508.14L1509.48 32.24V33.8H1502.92C1502.52 33.8 1502.32 34 1502.32 34.4V41.8C1502.32 42.2 1502.52 42.4 1502.92 42.4H1509.48V43.96L1508.14 45H1502.8C1500.56 45 1499.44 43.88 1499.44 41.64ZM1511.76 41.76V37.68C1511.76 35.52 1512.84 34.44 1515 34.44H1517.8C1519.96 34.44 1521.04 35.52 1521.04 37.68V41.76C1521.04 43.92 1519.96 45 1517.8 45H1515C1512.84 45 1511.76 43.92 1511.76 41.76ZM1514.52 41.96C1514.52 42.3867 1514.73 42.6 1515.16 42.6H1517.64C1518.07 42.6 1518.28 42.3867 1518.28 41.96V37.48C1518.28 37.0533 1518.07 36.84 1517.64 36.84H1515.16C1514.73 36.84 1514.52 37.0533 1514.52 37.48V41.96ZM1523.76 45V34.44H1529.6C1531.76 34.44 1532.84 35.52 1532.84 37.68V45H1530.08V37.48C1530.08 37.0533 1529.86 36.84 1529.44 36.84H1526.52V45H1523.76ZM1535.55 41.76V31.2H1538.31V34.44H1541.75V36.84H1538.31V41.96C1538.31 42.3867 1538.52 42.6 1538.95 42.6H1541.95V44.1L1540.75 45H1538.79C1536.63 45 1535.55 43.92 1535.55 41.76ZM1546.79 45C1544.63 45 1543.55 43.94 1543.55 41.82C1543.55 39.7 1544.63 38.64 1546.79 38.64H1549.55V37.48C1549.55 37.0533 1549.33 36.84 1548.91 36.84H1544.67V35.34L1545.87 34.44H1549.07C1551.23 34.44 1552.31 35.52 1552.31 37.68V45H1546.79ZM1546.31 41.96C1546.31 42.3867 1546.52 42.6 1546.95 42.6H1549.55V40.8H1546.95C1546.52 40.8 1546.31 41.0133 1546.31 41.44V41.96ZM1554.94 41.76V37.68C1554.94 35.52 1556.02 34.44 1558.18 34.44H1561.9L1563.1 35.34V36.84H1558.34C1557.92 36.84 1557.7 37.0533 1557.7 37.48V41.96C1557.7 42.3867 1557.92 42.6 1558.34 42.6H1563.1V44.1L1561.9 45H1558.18C1556.02 45 1554.94 43.92 1554.94 41.76ZM1565.38 41.76V31.2H1568.14V34.44H1571.58V36.84H1568.14V41.96C1568.14 42.3867 1568.35 42.6 1568.78 42.6H1571.78V44.1L1570.58 45H1568.62C1566.46 45 1565.38 43.92 1565.38 41.76ZM1578.66 41.76V34.44H1581.42V41.96C1581.42 42.3867 1581.63 42.6 1582.06 42.6H1584.98V34.44H1587.74V45H1581.9C1579.74 45 1578.66 43.92 1578.66 41.76ZM1590.25 44.1V42.6H1594.85C1595.31 42.6 1595.53 42.3467 1595.53 41.84C1595.53 41.32 1595.33 41.0267 1594.93 40.96L1592.77 40.6C1591.09 40.32 1590.25 39.3467 1590.25 37.68C1590.25 35.52 1591.33 34.44 1593.49 34.44H1596.59L1597.79 35.34V36.84H1593.67C1593.22 36.84 1592.99 37.0933 1592.99 37.6C1592.99 38.12 1593.19 38.4133 1593.59 38.48L1595.75 38.84C1597.43 39.12 1598.27 40.0933 1598.27 41.76C1598.27 43.92 1597.19 45 1595.03 45H1591.45L1590.25 44.1Z" fill="#F95C19"/>
<defs>
<filter id="filter0_d_301_658" x="-20" y="-20" width="1960" height="120" filterUnits="userSpaceOnUse" color-interpolation-filters="sRGB">
<feFlood flood-opacity="0" result="BackgroundImageFix"/>
<feColorMatrix in="SourceAlpha" type="matrix" values="0 0 0 0 0 0 0 0 0 0 0 0 0 0 0 0 0 0 127 0" result="hardAlpha"/>
<feOffset/>
<feGaussianBlur stdDeviation="10"/>
<feComposite in2="hardAlpha" operator="out"/>
<feColorMatrix type="matrix" values="0 0 0 0 0 0 0 0 0 0 0 0 0 0 0 0 0 0 0.05 0"/>
<feBlend mode="normal" in2="BackgroundImageFix" result="effect1_dropShadow_301_658"/>
<feBlend mode="normal" in="SourceGraphic" in2="effect1_dropShadow_301_658" result="shape"/>
</filter>
<radialGradient id="paint0_radial_301_658" cx="0" cy="0" r="1" gradientUnits="userSpaceOnUse" gradientTransform="translate(16.0001 -0.000289128) rotate(2.40597) scale(1905.68 8006.94)">
<stop stop-color="white" stop-opacity="0.7"/>
<stop offset="1" stop-color="white" stop-opacity="0.15"/>
</radialGradient>
</defs>
</svg>
